<?xml version="1.0" encoding="UTF-8"?>
<svg width="243px" height="50px" viewBox="0 0 243 50" version="1.1" xmlns="http://www.w3.org/2000/svg" xmlns:xlink="http://www.w3.org/1999/xlink">
    <!-- Generator: Sketch 55.2 (78181) - https://sketchapp.com -->
    <title>alternative to</title>
    <desc>Created with Sketch.</desc>
    <g id="Components" stroke="none" stroke-width="1" fill="none" fill-rule="evenodd">
        <g id="Webclient" transform="translate(-1102.000000, -50.000000)" fill="#5581A6" fill-rule="nonzero">
            <g id="alternative-to" transform="translate(1102.000000, 50.000000)">
                <g id="Logo">
                    <path d="M43.6761905,22.7142857 C43.2246464,22.6875347 42.7942215,22.9082186 42.552381,23.2904762 C42.1047619,23.0095238 40.8904762,22.4190476 40.4190476,22.1761905 L40.247619,22.0904762 C40.220234,22.0788318 40.1892898,22.0788318 40.1619048,22.0904762 L40.1619048,22.0619048 C40.1643861,22.0270282 40.1643861,21.9920194 40.1619048,21.9571429 C40.6380952,12.1571429 30.7190476,4.54285714 21.1142857,7.49047619 C16.4505959,8.97392705 12.7979655,12.6301088 11.3190476,17.2952381 C10.9275188,18.7217241 10.7194918,20.1923149 10.7,21.6714286 L10.3380952,21.8142857 L10.0761905,21.9238095 C9.6,22.1333333 9.12380952,22.3571429 8.64761905,22.6 C8.17142857,22.8428571 7.6952381,23.0761905 7.26190476,23.3761905 C7.19905724,23.4150657 7.17463948,23.4944234 7.2047619,23.5619048 C7.24097352,23.6333043 7.32626152,23.6645072 7.4,23.6333333 C7.87619048,23.4142857 8.35238095,23.2190476 8.82857143,23.0380952 C9.3047619,22.8571429 9.8047619,22.6952381 10.3,22.5619048 L10.3285714,22.5619048 C10.5666667,22.4904762 10.8047619,22.4285714 11.047619,22.3666667 L11.4190476,22.2809524 L11.4619048,22.2809524 L11.7952381,22.2095238 C12.2952381,22.1 12.8,22.0333333 13.3047619,21.9714286 L13.3619048,21.9714286 C13.5567091,21.9429713 13.718646,21.8067523 13.780041,21.6196982 C13.841436,21.4326442 13.7917199,21.2269564 13.6516695,21.0885929 C13.5116191,20.9502294 13.305344,20.9030095 13.1190476,20.9666667 C12.6428571,21.0809524 12.1666667,21.2047619 11.7333333,21.352381 L11.8238095,21.3238095 C11.8512638,20.0054251 12.0415961,18.695491 12.3904762,17.4238095 C13.760696,13.1191773 17.133463,9.74641029 21.4380952,8.37619048 C21.8253968,8.25873014 22.2111111,8.15873014 22.5952381,8.07619048 C22.9714286,7.9952381 24.4761905,7.78095238 22.8333333,8.7 C20.102917,10.2698817 18.0630416,12.8095267 17.1190476,15.8142857 C16.6428571,17.352381 16.4571429,20.3857143 16.7904762,22.7142857 C16.8952381,23.4428571 16.647619,23.5857143 16.1952381,23.7761905 C15.2428571,24.1809524 13.5761905,24.9142857 12.7190476,25.952381 C12.3857143,26.352381 12.2428571,25.952381 12.1619048,25.6666667 C11.995201,24.8827155 11.89327,24.0863793 11.8571429,23.2857143 C11.8535869,23.2158802 11.8188995,23.1513219 11.7626295,23.1098112 C11.7063595,23.0683005 11.634439,23.0542137 11.5666667,23.0714286 C11.3333333,23.1285714 11.0904762,23.1857143 10.8714286,23.2619048 C10.7745314,23.2953124 10.71078,23.3880416 10.7142857,23.4904762 C10.847619,26.552381 11.6238095,29.4 13.4809524,29.3095238 C13.5525856,29.3042847 13.6184145,29.2682004 13.6613629,29.2106313 C13.7043113,29.1530622 13.7201469,29.0796813 13.7047619,29.0095238 C13.4144218,28.8528078 13.1872772,28.600425 13.0619048,28.2952381 C12.447619,26.4571429 18.1428571,24.052381 25.4428571,22.9619048 C32.147619,21.9571429 37.9047619,22.4142857 38.9047619,23.9428571 C39.1115042,24.204493 39.134275,24.5669265 38.9619048,24.852381 C38.540541,25.6090133 37.910844,26.2287939 37.147619,26.6380952 C37.0830519,26.677285 37.0373513,26.7412077 37.0211572,26.8149811 C37.004963,26.8887544 37.0196883,26.9659413 37.0619048,27.0285714 C37.1372936,27.146352 37.2898296,27.187578 37.4142857,27.1238095 C38.348283,26.666937 39.1267907,25.9447468 39.652381,25.047619 C39.9484058,24.3742652 40.11016,23.6496068 40.1285714,22.9142857 C40.6047619,23.0619048 41.8619048,23.5666667 42.3428571,23.7619048 L42.3809524,23.7619048 C42.3609333,23.841538 42.3481826,23.9228238 42.3428571,24.0047619 C42.314242,24.7364031 42.8616424,25.3631975 43.5904762,25.4333333 C43.924303,25.4488095 44.2504696,25.3302245 44.496407,25.103962 C44.7423444,24.8776996 44.8876519,24.5625286 44.9,24.2285714 C44.9475238,23.4946023 44.4075881,22.8538226 43.6761905,22.7761905 L43.6761905,22.7142857 Z M34.2857143,19.6190476 C34.2926458,19.8020987 34.2222985,19.9796304 34.0918664,20.1082509 C33.9614344,20.2368714 33.7829363,20.304729 33.6,20.2952381 C31.9977262,20.1715116 30.3873238,20.2002118 28.7904762,20.3809524 C28.6052092,20.3959747 28.4223312,20.3312558 28.2877537,20.2030434 C28.1531761,20.074831 28.0796792,19.8953009 28.0857143,19.7095238 L28.0857143,19.147619 C28.0867123,19.0057933 28.1854145,18.8834026 28.3238095,18.852381 C30.2138661,18.5370728 32.1411969,18.5145873 34.0380952,18.7857143 C34.1788926,18.8094447 34.280556,18.933474 34.2761905,19.0761905 L34.2857143,19.6190476 Z M37.647619,18.0238095 C37.5832547,18.1232037 37.4575274,18.163117 37.347619,18.1190476 C33.1952381,16.5428571 26.7142857,17.4333333 26.7142857,17.4333333 C24.4914891,17.6544464 22.3057591,18.1568763 20.2095238,18.9285714 C19.980786,19.0161349 19.723433,18.9837236 19.5235492,18.8421791 C19.3236654,18.7006346 19.2076409,18.4686446 19.2142857,18.2238095 C19.2310588,17.6537957 19.2883461,17.0856961 19.3857143,16.5238095 C19.5960739,14.9865488 20.2161593,13.5342003 21.1809524,12.3190476 C21.2380952,12.252381 21.2952381,12.1857143 21.3571429,12.1238095 C21.3671307,12.1059459 21.3800026,12.089856 21.3952381,12.0761905 L21.4238095,12.0428571 L21.4952381,11.9666667 L21.5285714,11.9333333 C24.352381,8.98095238 29.3190476,8.64285714 32.8047619,10.5666667 C34.5477826,11.5478876 35.9925645,12.9827962 36.9857143,14.7190476 C37.1380952,15.0047619 38.1,17.2285714 37.647619,18.0238095 Z" id="Shape"></path>
                    <path d="M35.4380952,14.3285714 C34.6505004,12.9852726 33.4494138,11.9328601 32.0142857,11.3285714 C30.4138599,10.6551279 28.671141,10.3900382 26.9428571,10.5571429 C26.3290648,10.6053595 25.7249102,10.7383696 25.147619,10.952381 C25.0322665,10.9855683 24.9584616,11.0980487 24.9739355,11.2170789 C24.9894094,11.336109 25.08952,11.4259804 25.2095238,11.4285714 C26.5116236,11.291125 27.8261773,11.3263506 29.1190476,11.5333333 C33.8809524,12.4857143 35.4047619,14.7761905 35.5714286,14.8666667 C35.6190476,14.8904762 35.6761905,14.8428571 35.652381,14.7952381 C35.5908905,14.6329631 35.5209537,14.4740159 35.4428571,14.3190476" id="Shape"></path>
                    <path d="M14.1428571,22.6380952 C14.2245899,22.7531089 14.3531194,22.8259542 14.4937844,22.8369868 C14.6344495,22.8480194 14.7727642,22.7961029 14.8714286,22.6952381 C15.02986,22.535816 15.1460603,22.3394211 15.2095238,22.1238095 C15.3554921,21.570279 15.3204491,20.9845589 15.1095238,20.452381 C14.9737852,20.1127627 14.7270565,19.8291087 14.4095238,19.647619 C14.3515059,19.6108847 14.2812052,19.5988821 14.2142857,19.6142857 C14.0189489,19.6796875 13.8512476,19.8088175 13.7380952,19.9809524 C13.7097042,20.0165121 13.6981211,20.0626326 13.7063414,20.1073872 C13.7145616,20.1521419 13.741778,20.191136 13.7809524,20.2142857 C14.1678587,20.4185162 14.4398499,20.7887753 14.5190476,21.2190476 C14.5739752,21.6590626 14.4369254,22.1014386 14.1428571,22.4333333 C14.0922856,22.4922198 14.0922856,22.5792088 14.1428571,22.6380952" id="Shape"></path>
                    <path d="M5.23809524,23.3333333 C4.82707319,23.2992061 4.41949789,23.431065 4.10635282,23.6994751 C3.79320776,23.9678852 3.60056506,24.3504988 3.57142857,24.7619048 C3.5574185,25.6485925 4.24773003,26.38731 5.13333333,26.4333333 C5.97236348,26.4938664 6.70524329,25.8711304 6.78095238,25.0333333 C6.81617914,24.1407921 6.12986062,23.3845708 5.23809524,23.3333333" id="Shape"></path>
                    <path d="M49.852381,25 C49.8531952,13.360983 41.7865856,3.27601596 30.4316897,0.720031662 C19.0767937,-1.83595264 7.46694105,3.81984751 2.4804971,14.3366005 C-2.50594683,24.8533536 0.463088924,37.4216304 9.62857143,44.5952381 L10.1047619,44.9714286 C10.2666667,45.0952381 10.4333333,45.2142857 10.5809524,45.3333333 C13.1388723,47.1432915 16.0166297,48.4520976 19.0619048,49.1904762 L19.1333333,49.1904762 L19.5571429,49.2904762 L19.6857143,49.3142857 L20.0857143,49.4 L20.2428571,49.4285714 L20.6333333,49.5 L20.7857143,49.5285714 C21.0428571,49.5698414 21.3,49.6079367 21.5571429,49.6428571 L21.7095238,49.6666667 L22,49.7 L22.2952381,49.7333333 L22.5714286,49.7619048 L22.8904762,49.7904762 L23.152381,49.7904762 L23.4952381,49.7904762 L23.7380952,49.7904762 L24.1333333,49.7904762 L24.3333333,49.7904762 L24.9285714,49.7904762 C25.1428571,49.7904762 25.352381,49.7904762 25.5619048,49.7904762 L25.7714286,49.7904762 L26.1952381,49.7904762 L26.447619,49.7904762 L26.8190476,49.7904762 L27.0904762,49.7666667 L27.4380952,49.7380952 L27.7238095,49.7047619 L28.0571429,49.6666667 L28.347619,49.6285714 L28.6666667,49.5809524 L28.9619048,49.5333333 L29.2714286,49.4857143 L29.5714286,49.4285714 L29.8761905,49.3714286 L30.1761905,49.3047619 L30.4714286,49.2428571 L30.7714286,49.1714286 L31.0619048,49.1 L31.4285714,49.047619 L31.7047619,48.9714286 L32.0142857,48.8857143 L32.2857143,48.8047619 L32.5904762,48.7047619 C32.6809055,48.6812252 32.7699357,48.6526086 32.8571429,48.6190476 L33.1666667,48.5142857 L33.4238095,48.4238095 L33.7333333,48.3095238 L33.9809524,48.2142857 L34.2857143,48.0952381 L34.5238095,48 L34.8380952,47.8666667 L35.0714286,47.7666667 L35.3857143,47.6238095 L35.6095238,47.5190476 L35.9238095,47.3666667 L36.1380952,47.2571429 L36.452381,47.1 L36.6619048,46.9857143 C36.7714286,46.9333333 36.8761905,46.8761905 36.9761905,46.8190476 L37.1809524,46.7047619 L37.4952381,46.5238095 L37.6857143,46.4095238 L38.0047619,46.2190476 L38.1857143,46.1047619 L38.5047619,45.9047619 L38.6761905,45.7904762 L38.9952381,45.5761905 L39.1571429,45.4666667 L39.4809524,45.2380952 L39.6285714,45.1285714 L39.9571429,44.8857143 L40.0904762,44.7857143 L40.4238095,44.5285714 L40.5428571,44.4285714 L40.8809524,44.1571429 L40.9809524,44.0666667 L41.3285714,43.7761905 L41.4095238,43.7047619 L41.7666667,43.3809524 L41.8190476,43.3380952 L42.1952381,42.9809524 C47.1035976,38.2924452 49.8761648,31.7973071 49.866691,25.0095238 M32.547619,33.3333333 C32.5142857,33.0571429 32.4809524,32.7761905 32.4380952,32.5 C32.3952381,32.2238095 32.3571429,31.947619 32.3047619,31.6761905 C32.252381,31.4047619 32.2095238,31.1285714 32.1571429,30.8571429 C32.1047619,30.5857143 32.0380952,30.3095238 31.9714286,30.0619048 C31.9312337,29.8748118 32.039764,29.6878008 32.22215,29.6298809 C32.4045361,29.571961 32.6010775,29.6620911 32.6761905,29.8380952 C32.7809524,30.1333333 32.852381,30.4 32.9285714,30.6857143 C33.0047619,30.9714286 33.0714286,31.2428571 33.1333333,31.5238095 C33.252381,32.0904762 33.347619,32.652381 33.4380952,33.2190476 C33.552381,33.9619048 33.6285714,34.7095238 33.6904762,35.452381 C34.1666667,35.4761905 34.6761905,35.5095238 35.1666667,35.5571429 C36.4967258,35.693604 37.8087203,35.9697293 39.0809524,36.3809524 C39.2428352,36.4404752 39.3339608,36.6123124 39.292416,36.7797133 C39.2508713,36.9471141 39.0899764,37.0564061 38.9190476,37.0333333 L38.8952381,37.0333333 C38.2571429,36.9238095 37.6380952,36.7714286 36.9904762,36.7 L36.5142857,36.6285714 L36.2761905,36.5952381 L36.0380952,36.5952381 L35.0857143,36.5047619 C34.9238095,36.4809524 34.7619048,36.5047619 34.6095238,36.4714286 L34.1333333,36.4428571 L33.7809524,36.4428571 C33.7809524,36.5238095 33.7809524,36.6047619 33.7809524,36.6857143 L33.8190476,37.5380952 L33.8190476,38.3952381 C33.8190476,38.9666667 33.8190476,39.5380952 33.8190476,40.1095238 C33.8190476,40.6809524 33.7761905,41.247619 33.7571429,41.8142857 C33.7380952,42.3809524 33.6761905,42.952381 33.6238095,43.5190476 C33.595558,43.7071519 33.4297638,43.843513 33.2397435,43.8349315 C33.0497232,43.8263499 32.8968954,43.6755994 32.8857143,43.4857143 C32.8857143,42.9238095 32.8857143,42.3619048 32.9142857,41.8 C32.9428571,41.2380952 32.9142857,40.6714286 32.9142857,40.1095238 C32.9142857,39.547619 32.9142857,38.9857143 32.8857143,38.4285714 L32.8571429,37.5857143 L32.8571429,36.6666667 C32.8571429,36.5571429 32.8571429,36.452381 32.8571429,36.347619 L32.2190476,36.347619 L31.2666667,36.347619 C30.9428571,36.347619 30.6190476,36.3761905 30.3142857,36.3857143 C30.0095238,36.3952381 29.6666667,36.4190476 29.3619048,36.447619 C28.7142857,36.4904762 28.0666667,36.552381 27.4238095,36.6238095 C26.1333333,36.7714286 24.8380952,36.9571429 23.5761905,37.2047619 C23.392433,37.239894 23.2144368,37.1212299 23.1761905,36.9380952 C23.1449221,36.7648961 23.2498726,36.5961522 23.4190476,36.547619 C24.0714286,36.3714286 24.7095238,36.2333333 25.3619048,36.1047619 C26.0142857,35.9761905 26.6619048,35.8714286 27.3190476,35.7714286 C27.6428571,35.7190476 27.9761905,35.6857143 28.3047619,35.6428571 C28.6333333,35.6 28.9619048,35.5666667 29.2904762,35.5380952 C29.6190476,35.5095238 29.947619,35.4761905 30.2809524,35.4619048 C30.6142857,35.447619 30.9428571,35.4142857 31.2761905,35.4095238 C31.8,35.3857143 32.3238095,35.3809524 32.852381,35.4095238 C32.7952381,34.7095238 32.7285714,34.0142857 32.6428571,33.3238095 M19.9285714,29.947619 C19.6904762,30.7380952 19.1333333,32.6428571 18.7857143,34.1333333 C17.8934709,38.4780148 17.2432628,42.868906 16.8380952,47.2857143 C14.6910913,46.494976 12.671298,45.3944374 10.8428571,44.0190476 C11.2247133,41.1520152 11.8378231,38.3205625 12.6761905,35.552381 C12.9811958,34.5477592 13.399773,33.5811971 13.9238095,32.6714286 C14.3435267,32.0598284 14.9234167,31.5754884 15.6,31.2714286 L15.7238095,31.2142857 L15.9285714,31.1 L16.1904762,30.9666667 C16.3714286,30.8809524 16.547619,30.7952381 16.7238095,30.7190476 L16.9952381,30.6 L17.2619048,30.4904762 L17.8047619,30.2809524 C18.2809524,30.1047619 19.0904762,29.8571429 19.5952381,29.7095238 C19.8571429,29.6333333 19.9952381,29.7095238 19.9285714,29.947619 M41.1380952,36.6142857 C40.3952381,33.847619 39.3904762,29.5142857 36.4238095,28.5190476 C33.2619048,27.4428571 29.8619048,27.3238095 26.5761905,27.5333333 C24.2371166,27.6835587 21.9224688,28.097288 19.6761905,28.7666667 C18.6809524,29.0571429 15.4904762,30.2809524 14.8571429,30.6047619 C14.1329202,30.931346 13.512028,31.4501287 13.0619048,32.1047619 C12.5000691,33.079146 12.0511393,34.1144006 11.7238095,35.1904762 C10.9235641,37.8425435 10.3109399,40.5476376 9.89047619,43.2857143 C9.33333333,42.8095238 8.79047619,42.3333333 8.27142857,41.8047619 C-0.971746595,32.5647561 -1.01347106,17.5933051 8.17805833,8.30192305 C17.3695877,-0.989459052 32.3406157,-1.10949683 41.6799504,8.03330467 C51.0192852,17.1761062 51.2176329,32.1463014 42.1238095,41.5333333 C41.9022755,39.8755754 41.5730072,38.2340059 41.1380952,36.6190476" id="Shape"></path>
                </g>
                <path d="M62.2817947,45.3703704 C60.7218599,45.3703704 60.1851852,43.9200941 60.1851852,42.5925926 C60.1851852,41.3571721 60.7361711,39.8148148 62.2817947,39.8148148 C63.233498,39.8148148 63.8131066,40.3903213 64.0277765,40.9581543 L63.254965,41.3341519 C63.0045164,40.9274606 62.7540684,40.6972581 62.2817947,40.6972581 C61.3587137,40.6972581 61.0724875,41.7485165 61.0724875,42.5925926 C61.0724875,43.4827092 61.4374263,44.4802537 62.2817947,44.4802537 C62.7326014,44.4802537 63.0116723,44.1963372 63.2406533,43.789646 L64.0349323,44.1119296 C63.7272387,44.8562513 63.1762523,45.3703704 62.2817947,45.3703704 Z M65.3240116,45.2782893 L65.3240116,39.9068959 L67.5422672,39.9068959 C68.787353,39.9068959 69.18807,40.6972581 69.18807,41.5413342 C69.18807,42.1552077 68.8660651,42.8458154 68.1576545,43.076018 L69.1594476,45.2782893 L68.1934327,45.2782893 L67.2274182,43.1757725 L66.1826912,43.1757725 L66.1826912,45.2782893 L65.3240116,45.2782893 Z M66.1826912,42.3010027 L67.5565789,42.3010027 C68.1147206,42.3010027 68.3007676,41.9326786 68.3007676,41.5413342 C68.3007676,41.1806835 68.1433434,40.7816657 67.5565789,40.7816657 L66.1826912,40.7816657 L66.1826912,42.3010027 Z M72.5522922,45.3703704 C70.9422677,45.3703704 70.3555032,43.9200941 70.3555032,42.5925926 C70.3555032,41.2650911 70.9422677,39.8148148 72.5522922,39.8148148 C74.1694722,39.8148148 74.7490808,41.2650911 74.7490808,42.5925926 C74.7490808,43.9200941 74.1694722,45.3703704 72.5522922,45.3703704 Z M72.5522922,44.4879272 C73.5183067,44.4879272 73.8617785,43.4136484 73.8617785,42.5925926 C73.8617785,41.7101494 73.5254625,40.6972581 72.5522922,40.6972581 C71.5791219,40.6972581 71.2428055,41.7638633 71.2428055,42.5925926 C71.2428055,43.4673624 71.5791219,44.4879272 72.5522922,44.4879272 Z M76.7036372,45.2782893 L75.6302874,39.9068959 L76.5104343,39.9068959 L77.1043542,43.0683446 C77.1472882,43.313894 77.175911,43.459689 77.1902221,43.5824637 C77.2045333,43.459689 77.2331561,43.313894 77.2904017,43.0683446 L78.0274347,39.9068959 L78.7573127,39.9068959 L79.5086573,43.0606712 C79.5730583,43.3062206 79.5945253,43.4520155 79.6088364,43.5747903 C79.6231481,43.4520155 79.6446151,43.3062206 79.6947044,43.0683446 L80.2886247,39.9068959 L81.1544601,39.9068959 L80.0739548,45.2782893 L79.2868316,45.2782893 L78.4782419,41.9556988 C78.4209963,41.7408431 78.3923735,41.5950481 78.3780623,41.4569266 C78.3637511,41.5950481 78.3351283,41.7408431 78.2850385,41.9480254 L77.49076,45.2782893 L76.7036372,45.2782893 Z M82.3004263,39.9068959 L83.8460494,39.9068959 C85.5991871,39.9068959 86.2575084,41.2574177 86.2575084,42.5925926 C86.2575084,43.8203397 85.6564322,45.2782893 83.8174271,45.2782893 L82.3004263,45.2782893 L82.3004263,39.9068959 Z M83.9390732,44.411193 C85.0052672,44.411193 85.370206,43.4366687 85.370206,42.5925926 C85.370206,41.6871291 84.9694886,40.7739923 84.0177853,40.7739923 L83.1591058,40.7739923 L83.1591058,44.411193 L83.9390732,44.411193 Z M89.2424802,45.3703704 C88.3193992,45.3703704 87.6252998,44.833231 87.3533848,43.9814815 L88.1476633,43.6668713 C88.3551779,44.1579701 88.7558948,44.4956006 89.2711025,44.4956006 C89.7863102,44.4956006 90.1297825,44.2423777 90.1297825,43.7512789 C90.1297825,43.2371598 89.6217302,43.0453243 89.0564326,42.838142 C88.3408662,42.5772458 87.5394318,42.2779824 87.5394318,41.2574177 C87.5394318,40.4747289 88.1333522,39.8148148 89.1852346,39.8148148 C90.0582257,39.8148148 90.6092116,40.3059137 90.7881033,40.9658277 L90.0152918,41.2420708 C89.8864898,40.9274606 89.6002632,40.6895846 89.1279894,40.6895846 C88.6771827,40.6895846 88.412423,40.8967669 88.412423,41.2650911 C88.412423,41.6564354 88.8489186,41.8175773 89.3712821,42.0017393 C90.1011597,42.2779824 91.0027732,42.6156129 91.0027732,43.7512789 C91.0027732,44.7871905 90.2299616,45.3703704 89.2424802,45.3703704 Z M94.3669955,45.3703704 C92.7569709,45.3703704 92.1702064,43.9200941 92.1702064,42.5925926 C92.1702064,41.2650911 92.7569709,39.8148148 94.3669955,39.8148148 C95.9841754,39.8148148 96.5637841,41.2650911 96.5637841,42.5925926 C96.5637841,43.9200941 95.9841754,45.3703704 94.3669955,45.3703704 Z M94.3669955,44.4879272 C95.3330099,44.4879272 95.6764817,43.4136484 95.6764817,42.5925926 C95.6764817,41.7101494 95.3401658,40.6972581 94.3669955,40.6972581 C93.3938252,40.6972581 93.0575087,41.7638633 93.0575087,42.5925926 C93.0575087,43.4673624 93.3938252,44.4879272 94.3669955,44.4879272 Z M99.8636049,45.3703704 C98.8331895,45.3703704 97.910109,44.8409044 97.910109,43.2294864 L97.910109,39.9068959 L98.7687885,39.9068959 L98.7687885,43.2294864 C98.7687885,44.2116841 99.2124394,44.4879272 99.8636049,44.4879272 C100.507615,44.4879272 100.958422,44.2116841 100.958422,43.2294864 L100.958422,39.9068959 L101.817101,39.9068959 L101.817101,43.2294864 C101.817101,44.8178842 100.922643,45.3703704 99.8636049,45.3703704 Z M103.342317,45.2782893 L103.342317,39.9068959 L105.560574,39.9068959 C106.805659,39.9068959 107.206376,40.6972581 107.206376,41.5413342 C107.206376,42.1552077 106.884371,42.8458154 106.17596,43.076018 L107.177753,45.2782893 L106.211739,45.2782893 L105.245724,43.1757725 L104.200997,43.1757725 L104.200997,45.2782893 L103.342317,45.2782893 Z M104.200997,42.3010027 L105.574885,42.3010027 C106.133026,42.3010027 106.319074,41.9326786 106.319074,41.5413342 C106.319074,41.1806835 106.161649,40.7816657 105.574885,40.7816657 L104.200997,40.7816657 L104.200997,42.3010027 Z M110.470419,45.3703704 C108.910484,45.3703704 108.373809,43.9200941 108.373809,42.5925926 C108.373809,41.3571721 108.924795,39.8148148 110.470419,39.8148148 C111.422122,39.8148148 112.001731,40.3903213 112.216401,40.9581543 L111.443589,41.3341519 C111.193141,40.9274606 110.942693,40.6972581 110.470419,40.6972581 C109.547338,40.6972581 109.261112,41.7485165 109.261112,42.5925926 C109.261112,43.4827092 109.626051,44.4802537 110.470419,44.4802537 C110.921226,44.4802537 111.200297,44.1963372 111.429278,43.789646 L112.223557,44.1119296 C111.915863,44.8562513 111.364877,45.3703704 110.470419,45.3703704 Z M113.512636,45.2782893 L113.512636,39.9068959 L116.775619,39.9068959 L116.775619,40.7739923 L114.371315,40.7739923 L114.371315,42.0708001 L115.852538,42.0708001 L115.852538,42.9378965 L114.371315,42.9378965 L114.371315,44.411193 L116.933043,44.411193 L116.933043,45.2782893 L113.512636,45.2782893 Z M118.24359,39.9068959 L119.789213,39.9068959 C121.542351,39.9068959 122.200672,41.2574177 122.200672,42.5925926 C122.200672,43.8203397 121.599596,45.2782893 119.76059,45.2782893 L118.24359,45.2782893 L118.24359,39.9068959 Z M119.882237,44.411193 C120.948431,44.411193 121.313369,43.4366687 121.313369,42.5925926 C121.313369,41.6871291 120.912652,40.7739923 119.960949,40.7739923 L119.10227,40.7739923 L119.10227,44.411193 L119.882237,44.411193 Z M127.283313,45.3703704 C126.360233,45.3703704 125.666133,44.833231 125.394218,43.9814815 L126.188497,43.6668713 C126.396011,44.1579701 126.796728,44.4956006 127.311936,44.4956006 C127.827144,44.4956006 128.170615,44.2423777 128.170615,43.7512789 C128.170615,43.2371598 127.662563,43.0453243 127.097266,42.838142 C126.3817,42.5772458 125.580265,42.2779824 125.580265,41.2574177 C125.580265,40.4747289 126.174185,39.8148148 127.226068,39.8148148 C128.099059,39.8148148 128.650045,40.3059137 128.828937,40.9658277 L128.056125,41.2420708 C127.927323,40.9274606 127.641096,40.6895846 127.168822,40.6895846 C126.718016,40.6895846 126.453256,40.8967669 126.453256,41.2650911 C126.453256,41.6564354 126.889751,41.8175773 127.412115,42.0017393 C128.141993,42.2779824 129.043607,42.6156129 129.043607,43.7512789 C129.043607,44.7871905 128.270794,45.3703704 127.283313,45.3703704 Z M132.407828,45.3703704 C130.797804,45.3703704 130.21104,43.9200941 130.21104,42.5925926 C130.21104,41.2650911 130.797804,39.8148148 132.407828,39.8148148 C134.025008,39.8148148 134.604617,41.2650911 134.604617,42.5925926 C134.604617,43.9200941 134.025008,45.3703704 132.407828,45.3703704 Z M132.407828,44.4879272 C133.373843,44.4879272 133.717315,43.4136484 133.717315,42.5925926 C133.717315,41.7101494 133.380999,40.6972581 132.407828,40.6972581 C131.434658,40.6972581 131.098342,41.7638633 131.098342,42.5925926 C131.098342,43.4673624 131.434658,44.4879272 132.407828,44.4879272 Z M135.98672,45.2782893 L135.98672,39.9068959 L139.22108,39.9068959 L139.22108,40.7739923 L136.8454,40.7739923 L136.8454,42.0708001 L138.362401,42.0708001 L138.362401,42.9378965 L136.8454,42.9378965 L136.8454,45.2782893 L135.98672,45.2782893 Z M142.349165,40.7893391 L142.349165,45.2782893 L141.490486,45.2782893 L141.490486,40.7893391 L140.066509,40.7893391 L140.066509,39.9068959 L143.773142,39.9068959 L143.773142,40.7893391 L142.349165,40.7893391 Z M145.763477,45.2782893 L144.690127,39.9068959 L145.570274,39.9068959 L146.164194,43.0683446 C146.207128,43.313894 146.235751,43.459689 146.250062,43.5824637 C146.264373,43.459689 146.292996,43.313894 146.350241,43.0683446 L147.087275,39.9068959 L147.817152,39.9068959 L148.568497,43.0606712 C148.632898,43.3062206 148.654365,43.4520155 148.668676,43.5747903 C148.682988,43.4520155 148.704455,43.3062206 148.754544,43.0683446 L149.348465,39.9068959 L150.2143,39.9068959 L149.133794,45.2782893 L148.346672,45.2782893 L147.538081,41.9556988 C147.480836,41.7408431 147.452214,41.5950481 147.437902,41.4569266 C147.423591,41.5950481 147.394968,41.7408431 147.344879,41.9480254 L146.5506,45.2782893 L145.763477,45.2782893 Z M154.465824,45.2782893 L154.072263,44.1042562 L152.090144,44.1042562 L151.696582,45.2782893 L150.787813,45.2782893 L152.655441,39.9068959 L153.506965,39.9068959 L155.367438,45.2782893 L154.465824,45.2782893 Z M153.800348,43.2755269 L153.249361,41.6641089 C153.192116,41.5106405 153.120559,41.2804379 153.084781,41.1192961 C153.041847,41.2804379 152.97029,41.5106405 152.920201,41.6641089 L152.362059,43.2755269 L153.800348,43.2755269 Z M156.477626,45.2782893 L156.477626,39.9068959 L158.695881,39.9068959 C159.940967,39.9068959 160.341684,40.6972581 160.341684,41.5413342 C160.341684,42.1552077 160.019679,42.8458154 159.311269,43.076018 L160.313061,45.2782893 L159.347047,45.2782893 L158.381032,43.1757725 L157.336305,43.1757725 L157.336305,45.2782893 L156.477626,45.2782893 Z M157.336305,42.3010027 L158.710193,42.3010027 C159.268335,42.3010027 159.454382,41.9326786 159.454382,41.5413342 C159.454382,41.1806835 159.296957,40.7816657 158.710193,40.7816657 L157.336305,40.7816657 L157.336305,42.3010027 Z M161.723787,45.2782893 L161.723787,39.9068959 L164.98677,39.9068959 L164.98677,40.7739923 L162.582467,40.7739923 L162.582467,42.0708001 L164.063689,42.0708001 L164.063689,42.9378965 L162.582467,42.9378965 L162.582467,44.411193 L165.144195,44.411193 L165.144195,45.2782893 L161.723787,45.2782893 Z M168.55241,45.2782893 L168.55241,39.9068959 L170.770666,39.9068959 C172.015752,39.9068959 172.416469,40.6972581 172.416469,41.5413342 C172.416469,42.1552077 172.094464,42.8458154 171.386053,43.076018 L172.387846,45.2782893 L171.421832,45.2782893 L170.455817,43.1757725 L169.41109,43.1757725 L169.41109,45.2782893 L168.55241,45.2782893 Z M169.41109,42.3010027 L170.784978,42.3010027 C171.343119,42.3010027 171.529167,41.9326786 171.529167,41.5413342 C171.529167,41.1806835 171.371742,40.7816657 170.784978,40.7816657 L169.41109,40.7816657 L169.41109,42.3010027 Z M173.798572,45.2782893 L173.798572,39.9068959 L177.061555,39.9068959 L177.061555,40.7739923 L174.657252,40.7739923 L174.657252,42.0708001 L176.138474,42.0708001 L176.138474,42.9378965 L174.657252,42.9378965 L174.657252,44.411193 L177.21898,44.411193 L177.21898,45.2782893 L173.798572,45.2782893 Z M180.268352,45.3703704 C178.708418,45.3703704 178.171743,43.9200941 178.171743,42.5925926 C178.171743,41.3571721 178.722729,39.8148148 180.268352,39.8148148 C181.220055,39.8148148 181.799664,40.3903213 182.014334,40.9581543 L181.241522,41.3341519 C180.991074,40.9274606 180.740626,40.6972581 180.268352,40.6972581 C179.345271,40.6972581 179.059045,41.7485165 179.059045,42.5925926 C179.059045,43.4827092 179.423984,44.4802537 180.268352,44.4802537 C180.719159,44.4802537 180.99823,44.1963372 181.227211,43.789646 L182.02149,44.1119296 C181.713796,44.8562513 181.16281,45.3703704 180.268352,45.3703704 Z M185.25691,45.3703704 C183.646885,45.3703704 183.060121,43.9200941 183.060121,42.5925926 C183.060121,41.2650911 183.646885,39.8148148 185.25691,39.8148148 C186.87409,39.8148148 187.453699,41.2650911 187.453699,42.5925926 C187.453699,43.9200941 186.87409,45.3703704 185.25691,45.3703704 Z M185.25691,44.4879272 C186.222924,44.4879272 186.566396,43.4136484 186.566396,42.5925926 C186.566396,41.7101494 186.23008,40.6972581 185.25691,40.6972581 C184.28374,40.6972581 183.947423,41.7638633 183.947423,42.5925926 C183.947423,43.4673624 184.28374,44.4879272 185.25691,44.4879272 Z M193.393959,45.2782893 L192.53528,45.2782893 L192.53528,42.4237774 C192.53528,42.2319419 192.549591,41.9250051 192.563903,41.7792102 C192.499502,41.9863925 192.406478,42.2472887 192.334921,42.4391242 L191.118459,45.3703704 L189.901996,42.4237774 C189.823284,42.2396153 189.73026,41.9863925 189.665859,41.7792102 C189.68017,41.9250051 189.694482,42.2319419 189.694482,42.4237774 L189.694482,45.2782893 L188.835802,45.2782893 L188.835802,39.9068959 L189.701637,39.9068959 L190.989657,43.0606712 C191.039746,43.1911193 191.089836,43.3369143 191.125614,43.459689 C191.161393,43.3369143 191.211482,43.1911193 191.261572,43.0606712 L192.556747,39.9068959 L193.393959,39.9068959 L193.393959,45.2782893 Z M199.513112,45.2782893 L198.654432,45.2782893 L198.654432,42.4237774 C198.654432,42.2319419 198.668744,41.9250051 198.683055,41.7792102 C198.618654,41.9863925 198.525631,42.2472887 198.454074,42.4391242 L197.237611,45.3703704 L196.021148,42.4237774 C195.942436,42.2396153 195.849412,41.9863925 195.785011,41.7792102 C195.799323,41.9250051 195.813634,42.2319419 195.813634,42.4237774 L195.813634,45.2782893 L194.954954,45.2782893 L194.954954,39.9068959 L195.82079,39.9068959 L197.108809,43.0606712 C197.158899,43.1911193 197.208988,43.3369143 197.244767,43.459689 C197.280545,43.3369143 197.330635,43.1911193 197.380724,43.0606712 L198.675899,39.9068959 L199.513112,39.9068959 L199.513112,45.2782893 Z M201.074107,45.2782893 L201.074107,39.9068959 L204.337089,39.9068959 L204.337089,40.7739923 L201.932786,40.7739923 L201.932786,42.0708001 L203.414009,42.0708001 L203.414009,42.9378965 L201.932786,42.9378965 L201.932786,44.411193 L204.494514,44.411193 L204.494514,45.2782893 L201.074107,45.2782893 Z M209.697742,45.2782893 L208.917774,45.2782893 L206.842632,41.886638 C206.778231,41.7792102 206.699519,41.6257418 206.635118,41.4876202 C206.649429,41.6103949 206.656585,41.7638633 206.656585,41.886638 L206.656585,45.2782893 L205.80506,45.2782893 L205.80506,39.9068959 L206.635118,39.9068959 L208.66017,43.2448333 C208.731727,43.3599345 208.803284,43.5134029 208.867685,43.6515245 C208.853373,43.5134029 208.846218,43.3599345 208.846218,43.2448333 L208.846218,39.9068959 L209.697742,39.9068959 L209.697742,45.2782893 Z M211.258736,39.9068959 L212.80436,39.9068959 C214.557497,39.9068959 215.215818,41.2574177 215.215818,42.5925926 C215.215818,43.8203397 214.614743,45.2782893 212.775737,45.2782893 L211.258736,45.2782893 L211.258736,39.9068959 Z M212.897383,44.411193 C213.963577,44.411193 214.328516,43.4366687 214.328516,42.5925926 C214.328516,41.6871291 213.927799,40.7739923 212.976096,40.7739923 L212.117416,40.7739923 L212.117416,44.411193 L212.897383,44.411193 Z M219.624767,45.2782893 L219.231206,44.1042562 L217.249087,44.1042562 L216.855525,45.2782893 L215.946756,45.2782893 L217.814385,39.9068959 L218.665908,39.9068959 L220.526381,45.2782893 L219.624767,45.2782893 Z M218.959291,43.2755269 L218.408304,41.6641089 C218.351059,41.5106405 218.279502,41.2804379 218.243724,41.1192961 C218.20079,41.2804379 218.129234,41.5106405 218.079144,41.6641089 L217.521002,43.2755269 L218.959291,43.2755269 Z M223.024768,40.7893391 L223.024768,45.2782893 L222.166088,45.2782893 L222.166088,40.7893391 L220.742111,40.7893391 L220.742111,39.9068959 L224.448745,39.9068959 L224.448745,40.7893391 L223.024768,40.7893391 Z M225.723513,45.2782893 L225.723513,39.9068959 L226.582192,39.9068959 L226.582192,45.2782893 L225.723513,45.2782893 Z M230.196863,45.3703704 C228.586839,45.3703704 228.000074,43.9200941 228.000074,42.5925926 C228.000074,41.2650911 228.586839,39.8148148 230.196863,39.8148148 C231.814043,39.8148148 232.393652,41.2650911 232.393652,42.5925926 C232.393652,43.9200941 231.814043,45.3703704 230.196863,45.3703704 Z M230.196863,44.4879272 C231.162877,44.4879272 231.506349,43.4136484 231.506349,42.5925926 C231.506349,41.7101494 231.170033,40.6972581 230.196863,40.6972581 C229.223692,40.6972581 228.887376,41.7638633 228.887376,42.5925926 C228.887376,43.4673624 229.223692,44.4879272 230.196863,44.4879272 Z M237.668436,45.2782893 L236.888469,45.2782893 L234.813326,41.886638 C234.748925,41.7792102 234.670213,41.6257418 234.605812,41.4876202 C234.620123,41.6103949 234.627279,41.7638633 234.627279,41.886638 L234.627279,45.2782893 L233.775755,45.2782893 L233.775755,39.9068959 L234.605812,39.9068959 L236.630865,43.2448333 C236.702421,43.3599345 236.773978,43.5134029 236.838379,43.6515245 C236.824068,43.5134029 236.816912,43.3599345 236.816912,43.2448333 L236.816912,39.9068959 L237.668436,39.9068959 L237.668436,45.2782893 Z M240.832299,45.3703704 C239.909219,45.3703704 239.215119,44.833231 238.943204,43.9814815 L239.737483,43.6668713 C239.944997,44.1579701 240.345714,44.4956006 240.860922,44.4956006 C241.37613,44.4956006 241.719601,44.2423777 241.719601,43.7512789 C241.719601,43.2371598 241.21155,43.0453243 240.646252,42.838142 C239.930686,42.5772458 239.129251,42.2779824 239.129251,41.2574177 C239.129251,40.4747289 239.723172,39.8148148 240.775054,39.8148148 C241.648045,39.8148148 242.199031,40.3059137 242.377923,40.9658277 L241.605111,41.2420708 C241.476309,40.9274606 241.190083,40.6895846 240.717809,40.6895846 C240.267002,40.6895846 240.002242,40.8967669 240.002242,41.2650911 C240.002242,41.6564354 240.438737,41.8175773 240.961101,42.0017393 C241.690979,42.2779824 242.592593,42.6156129 242.592593,43.7512789 C242.592593,44.7871905 241.819781,45.3703704 240.832299,45.3703704 Z" id="CROWDSOURCED-SOFTWAR"></path>
                <path d="M72.1192809,27.199245 L67.7910067,27.199245 C67.1953722,27.199245 66.8777006,27.5165491 66.7585741,28.0321681 L65.6864326,32.5140872 C65.4878881,33.3866732 64.852545,33.8626292 63.939239,33.8626292 L61.3581578,33.8626292 C60.4845613,33.8626292 60.0080538,33.3866732 60.2463078,32.5140872 L66.5600291,8.71628644 C66.7982831,7.88336343 67.3939172,7.40740741 68.2675137,7.40740741 L71.8810274,7.40740741 C72.754624,7.40740741 73.350258,7.88336343 73.588512,8.71628644 L79.7831068,32.3950982 C80.0213604,33.2676842 79.5448528,33.8626292 78.6712563,33.8626292 L75.9710481,33.8626292 C75.0577426,33.8626292 74.4223996,33.3866732 74.223855,32.5140872 L73.1517135,28.0321681 C73.0325865,27.5165491 72.714915,27.199245 72.1192809,27.199245 Z M69.2780591,22.5983369 L71.6208867,22.5983369 C72.0576847,22.5983369 72.3356473,22.4000219 72.2165207,21.9240659 L70.4693271,14.4277586 L68.682425,21.9240659 C68.563298,22.4000219 68.8412606,22.5983369 69.2780591,22.5983369 Z M86.8278226,8.75594942 L86.8278226,32.5537502 C86.8278226,33.4263362 86.3910241,33.8626292 85.4777185,33.8626292 L82.9760554,33.8626292 C82.1024588,33.8626292 81.6656603,33.4263362 81.6656603,32.5537502 L81.6656603,8.75594942 C81.6656603,7.8437004 82.1024588,7.40740741 82.9760554,7.40740741 L85.4777185,7.40740741 C86.3910241,7.40740741 86.8278226,7.8437004 86.8278226,8.75594942 Z M90.0823673,29.2617211 L90.0823673,17.7594507 L89.6455693,17.7594507 C88.7719723,17.7594507 88.3351742,17.3231577 88.3351742,16.4505717 L88.3351742,14.7053996 C88.3351742,13.8328136 88.7719723,13.3965206 89.6455693,13.3965206 L90.0823673,13.3965206 L90.0823673,10.5011215 C90.0823673,9.66819849 90.2412033,8.71628644 91.3133444,8.39898243 L93.4179185,7.80403743 C94.5694776,7.48673341 95.2445296,7.88336343 95.2445296,8.99392743 L95.2445296,13.3965206 L96.9520142,13.3965206 C97.8256108,13.3965206 98.2624093,13.8328136 98.2624093,14.7053996 L98.2624093,16.4505717 C98.2624093,17.3231577 97.8256108,17.7594507 96.9520142,17.7594507 L95.2445296,17.7594507 L95.2445296,28.5081241 C95.2445296,29.5393621 95.8401641,29.8963291 96.5946337,29.8963291 L97.1505592,29.8963291 C97.7461932,29.8963291 98.1432828,30.0946441 98.1432828,31.0068932 L98.1432828,32.3554352 C98.1432828,33.7039772 96.7931787,34.2592593 95.3636566,34.2592593 C92.7428665,34.2592593 90.0823673,32.7917282 90.0823673,29.2617211 Z M113.747308,19.8615898 L113.747308,23.7882269 C113.747308,24.6608129 113.31051,25.097106 112.436913,25.097106 L104.534834,25.097106 L104.534834,26.524974 C104.534834,28.7461021 105.567266,29.9359921 107.989511,29.9359921 C109.657287,29.9359921 110.29263,29.2617211 111.364772,29.2617211 C112.317786,29.2617211 112.675167,30.0153181 112.675167,30.5706001 L112.675167,31.2052081 C112.675167,32.8710542 111.086809,34.2592593 107.67184,34.2592593 C102.231715,34.2592593 99.3726714,31.0862192 99.3726714,26.088681 L99.3726714,19.8615898 C99.3726714,15.6573116 102.43026,12.9998906 106.55999,12.9998906 C110.68972,12.9998906 113.747308,15.6573116 113.747308,19.8615898 Z M108.624854,21.1704688 L108.624854,19.8615898 C108.624854,17.9577657 107.830676,17.0058537 106.55999,17.0058537 C105.289304,17.0058537 104.534834,17.9577657 104.534834,19.8615898 L104.534834,21.1704688 L108.624854,21.1704688 Z M121.528672,21.0514798 L121.528672,32.5537502 C121.528672,33.4263362 121.091874,33.8626292 120.178568,33.8626292 L117.676905,33.8626292 C116.803308,33.8626292 116.36651,33.4263362 116.36651,32.5537502 L116.36651,14.7450626 C116.36651,13.8328136 116.803308,13.3965206 117.676905,13.3965206 L120.178568,13.3965206 C121.131583,13.3965206 121.528672,13.8328136 121.528672,14.8243886 C122.322851,13.9914656 123.553828,12.9998906 125.102477,12.9998906 C126.055491,12.9998906 126.174618,13.5948356 126.174618,14.1104546 L126.174618,16.2125937 C126.174618,17.3628207 125.181895,17.4818097 124.22888,17.6007987 C122.600814,17.7991137 121.528672,19.1079928 121.528672,21.0514798 Z M137.569496,32.5537502 L137.569496,20.1788938 C137.569496,18.5527107 136.815026,17.3628207 135.306086,17.3628207 C133.797146,17.3628207 133.042677,18.5527107 133.042677,20.1788938 L133.042677,32.5537502 C133.042677,33.4263362 132.605878,33.8626292 131.692573,33.8626292 L129.19091,33.8626292 C128.317313,33.8626292 127.880515,33.4263362 127.880515,32.5537502 L127.880515,14.7450626 C127.880515,13.8328136 128.317313,13.3965206 129.19091,13.3965206 L131.692573,13.3965206 C132.566169,13.3965206 133.042677,13.8328136 133.042677,14.7053996 C133.042677,14.7053996 134.392781,12.9998906 137.05328,12.9998906 C140.905047,12.9998906 142.731658,15.8556267 142.731658,20.1788938 L142.731658,32.5537502 C142.731658,33.4263362 142.29486,33.8626292 141.381554,33.8626292 L138.879891,33.8626292 C138.006295,33.8626292 137.569496,33.4263362 137.569496,32.5537502 Z M151.744,16.8075387 C149.440881,16.8075387 148.567284,17.4024837 147.812815,17.4024837 C147.336307,17.4024837 146.740673,17.1645057 146.740673,16.4109087 L146.740673,15.3400077 C146.740673,13.6344986 149.321754,12.9998906 151.823417,12.9998906 C155.278096,12.9998906 159.765206,13.8724766 159.765206,19.5046228 L159.765206,32.5140872 C159.765206,33.4263362 159.328407,33.8626292 158.454811,33.8626292 L156.548782,33.8626292 C155.714894,33.8626292 155.278096,33.5056622 155.198678,32.8313912 C155.079551,32.9503802 153.808865,34.2592593 151.466037,34.2592593 C147.61427,34.2592593 144.914062,31.3638602 144.914062,27.6752011 C144.914062,21.4877728 149.718844,19.6632748 154.603044,19.1476557 C154.523626,17.7594507 153.967701,16.8075387 151.744,16.8075387 Z M150.076224,27.119919 C150.076224,28.5874501 150.790985,29.8170031 152.339634,29.8170031 C153.808865,29.8170031 154.603044,28.6271131 154.603044,27.119919 L154.603044,22.8759779 C152.299925,23.3915969 150.076224,24.1451939 150.076224,27.119919 Z M162.781497,29.2617211 L162.781497,17.7594507 L162.344699,17.7594507 C161.471102,17.7594507 161.034303,17.3231577 161.034303,16.4505717 L161.034303,14.7053996 C161.034303,13.8328136 161.471102,13.3965206 162.344699,13.3965206 L162.781497,13.3965206 L162.781497,10.5011215 C162.781497,9.66819849 162.940333,8.71628644 164.012474,8.39898243 L166.117048,7.80403743 C167.268607,7.48673341 167.943659,7.88336343 167.943659,8.99392743 L167.943659,13.3965206 L169.651144,13.3965206 C170.524741,13.3965206 170.961539,13.8328136 170.961539,14.7053996 L170.961539,16.4505717 C170.961539,17.3231577 170.524741,17.7594507 169.651144,17.7594507 L167.943659,17.7594507 L167.943659,28.5081241 C167.943659,29.5393621 168.539293,29.8963291 169.293763,29.8963291 L169.849688,29.8963291 C170.445323,29.8963291 170.842412,30.0946441 170.842412,31.0068932 L170.842412,32.3554352 C170.842412,33.7039772 169.492308,34.2592593 168.062786,34.2592593 C165.441996,34.2592593 162.781497,32.7917282 162.781497,29.2617211 Z M178.028142,14.7450626 L178.028142,32.5537502 C178.028142,33.4263362 177.591343,33.8626292 176.678038,33.8626292 L174.176375,33.8626292 C173.302778,33.8626292 172.86598,33.4263362 172.86598,32.5537502 L172.86598,14.7450626 C172.86598,13.8328136 173.302778,13.3965206 174.176375,13.3965206 L176.678038,13.3965206 C177.591343,13.3965206 178.028142,13.8328136 178.028142,14.7450626 Z M178.028142,8.75594942 L178.028142,10.4217955 C178.028142,11.2943815 177.591343,11.7306745 176.678038,11.7306745 L174.176375,11.7306745 C173.302778,11.7306745 172.86598,11.2943815 172.86598,10.4217955 L172.86598,8.75594942 C172.86598,7.8437004 173.302778,7.40740741 174.176375,7.40740741 L176.678038,7.40740741 C177.591343,7.40740741 178.028142,7.8437004 178.028142,8.75594942 Z M193.036533,13.3965206 L194.982271,13.3965206 C195.855868,13.3965206 196.491212,13.9914656 196.094122,15.1416926 L190.336326,32.5537502 C190.137781,33.2280212 189.661274,33.8626292 188.628841,33.8626292 L186.80223,33.8626292 C185.769797,33.8626292 185.29329,33.2280212 185.094745,32.5537502 L179.65462,15.1416926 C179.29724,13.9914656 179.892874,13.3965206 180.766471,13.3965206 L182.950462,13.3965206 C184.022604,13.3965206 184.499111,13.9121396 184.697656,14.7450626 L187.874371,26.009355 L191.28934,14.7450626 C191.527594,13.9121396 191.964392,13.3965206 193.036533,13.3965206 Z M211.936401,19.8615898 L211.936401,23.7882269 C211.936401,24.6608129 211.499603,25.097106 210.626006,25.097106 L202.723927,25.097106 L202.723927,26.524974 C202.723927,28.7461021 203.756359,29.9359921 206.178605,29.9359921 C207.84638,29.9359921 208.481723,29.2617211 209.553865,29.2617211 C210.506879,29.2617211 210.86426,30.0153181 210.86426,30.5706001 L210.86426,31.2052081 C210.86426,32.8710542 209.275902,34.2592593 205.860933,34.2592593 C200.420808,34.2592593 197.561764,31.0862192 197.561764,26.088681 L197.561764,19.8615898 C197.561764,15.6573116 200.619353,12.9998906 204.749083,12.9998906 C208.878813,12.9998906 211.936401,15.6573116 211.936401,19.8615898 Z M206.813948,21.1704688 L206.813948,19.8615898 C206.813948,17.9577657 206.019769,17.0058537 204.749083,17.0058537 C203.478396,17.0058537 202.723927,17.9577657 202.723927,19.8615898 L202.723927,21.1704688 L206.813948,21.1704688 Z M227.504783,7.40740741 C228.418089,7.40740741 228.854887,7.8437004 228.854887,8.75594942 L228.854887,10.6597735 C228.854887,11.5323595 228.418089,11.9686525 227.504783,11.9686525 L224.089814,11.9686525 C223.573598,11.9686525 223.295635,12.2462935 223.295635,12.7619126 L223.295635,32.5537502 C223.295635,33.4263362 222.858837,33.8626292 221.98524,33.8626292 L219.285032,33.8626292 C218.371727,33.8626292 217.934928,33.4263362 217.934928,32.5537502 L217.934928,12.7619126 C217.934928,12.2462935 217.656966,11.9686525 217.14075,11.9686525 L213.72578,11.9686525 C212.812475,11.9686525 212.375676,11.5323595 212.375676,10.6597735 L212.375676,8.75594942 C212.375676,7.8437004 212.812475,7.40740741 213.72578,7.40740741 L227.504783,7.40740741 Z M227.820866,27.5165491 L227.820866,19.7426008 C227.820866,15.0227037 231.474089,12.9998906 235.206729,12.9998906 C238.93937,12.9998906 242.592593,15.0227037 242.592593,19.7426008 L242.592593,27.5165491 C242.592593,32.2364462 238.93937,34.2592593 235.206729,34.2592593 C231.474089,34.2592593 227.820866,32.2364462 227.820866,27.5165491 Z M232.983029,19.7426008 L232.983029,27.5165491 C232.983029,29.0634061 233.856626,29.8963291 235.206729,29.8963291 C236.556833,29.8963291 237.43043,29.0634061 237.43043,27.5165491 L237.43043,19.7426008 C237.43043,18.1957438 236.556833,17.3628207 235.206729,17.3628207 C233.856626,17.3628207 232.983029,18.1957438 232.983029,19.7426008 Z" id="AlternativeTo"></path>
            </g>
        </g>
    </g>
</svg>