<?xml version="1.0" encoding="UTF-8"?>
<svg width="214px" height="50px" viewBox="0 0 214 50" version="1.1" xmlns="http://www.w3.org/2000/svg" xmlns:xlink="http://www.w3.org/1999/xlink">
    <!-- Generator: Sketch 55.2 (78181) - https://sketchapp.com -->
    <title>product hunt</title>
    <desc>Created with Sketch.</desc>
    <g id="Components" stroke="none" stroke-width="1" fill="none" fill-rule="evenodd">
        <g id="Webclient" transform="translate(-478.000000, -50.000000)">
            <g id="product-hunt" transform="translate(478.000000, 50.000000)">
                <path d="M50,25 C50,38.8070833 38.8070833,50 25,50 C11.1929167,50 0,38.8070833 0,25 C0,11.1929167 11.1929167,0 25,0 C38.8070833,0 50,11.1929167 50,25" id="Fill-1" fill="#DA552F"></path>
                <path d="M27.8846154,24.999779 L27.8846154,25 L20.4545455,25 L20.4545455,17.0456755 L27.8846154,17.0456755 L27.8846154,17.0454545 C30.0570367,17.0454545 31.8181818,18.8261185 31.8181818,21.0226168 C31.8181818,23.2191151 30.0570367,24.999779 27.8846154,24.999779 M28.4318182,12.5 L28.4318182,12.5 L15.9090909,12.5 L15.9090909,37.5 L21.0909091,37.5 L21.0909091,30.0002083 L28.4318182,30.0002083 L28.4318182,30 C33.4400455,30 37.5,26.0825 37.5,21.25 C37.5,16.4175 33.4400455,12.5 28.4318182,12.5" id="Fill-3" fill="#FFFFFF"></path>
                <path d="M76.1363636,21.6038395 C76.1363636,20.1814992 75.1534674,19.3181818 73.8769611,19.3181818 L70.4545455,19.3181818 L70.4545455,23.8636364 L73.8769611,23.8636364 C75.1534674,23.8636364 76.1363636,23.0003189 76.1363636,21.6038395 L76.1363636,21.6038395 Z M67.0454545,32.9545455 L67.0454545,17.0454545 L74.3210864,17.0454545 C77.7034347,17.0454545 79.5454545,19.3415341 79.5454545,22.0830682 C79.5454545,24.8007386 77.6806693,27.0968182 74.3210864,27.0968182 L70.357527,27.0968182 L70.357527,32.9545455 L67.0454545,32.9545455 Z" id="Fill-5" fill="#DA552F"></path>
                <path d="M81.8181818,32.9545455 L81.8181818,20.7496035 L84.8982775,20.7496035 L84.8982775,22.3527525 C85.7477957,21.3169103 87.1803409,20.4545455 88.6363636,20.4545455 L88.6363636,23.5110125 C88.4170335,23.4618361 88.1503362,23.4377711 87.7868454,23.4377711 C86.7674235,23.4377711 85.4079884,24.0289336 84.8982775,24.793992 L84.8982775,32.9545455 L81.8181818,32.9545455 Z" id="Fill-7" fill="#DA552F"></path>
                <path d="M98.8636364,26.1245219 C98.8636364,24.3048023 97.8505249,22.7272727 96.011503,22.7272727 C94.1931728,22.7272727 93.1818182,24.3048023 93.1818182,26.1245219 C93.1818182,27.9689547 94.1931728,29.5454545 96.011503,29.5454545 C97.8505249,29.5454545 98.8636364,27.9689547 98.8636364,26.1245219 M89.7727273,26.6919898 C89.7727273,23.3143071 92.1210058,20.4545455 96.0107897,20.4545455 C99.9244488,20.4545455 102.272727,23.3143071 102.272727,26.6919898 C102.272727,30.0696725 99.9244488,32.9545455 96.0107897,32.9545455 C92.1210058,32.9545455 89.7727273,30.0696725 89.7727273,26.6919898" id="Fill-9" fill="#DA552F"></path>
                <path d="M112.5,29.3473023 L112.5,25.1983582 C111.985493,24.4217441 110.858775,23.8636364 109.829554,23.8636364 C108.042812,23.8636364 106.818182,25.246755 106.818182,27.2608855 C106.818182,29.2989055 108.042812,30.6818182 109.829554,30.6818182 C110.858775,30.6818182 111.985493,30.1237104 112.5,29.3473023 L112.5,29.3473023 Z M112.946637,32.9545455 L112.946637,31.2204545 C112.066603,32.3450284 110.864217,32.9545455 109.498003,32.9545455 C106.697609,32.9545455 104.545455,30.7988636 104.545455,27.0031534 C104.545455,23.3249716 106.652429,21.075625 109.498003,21.075625 C110.817072,21.075625 112.066603,21.6376136 112.946637,22.8089205 L112.946637,17.0454545 L115.909091,17.0454545 L115.909091,32.9545455 L112.946637,32.9545455 Z" id="Fill-11" fill="#DA552F"></path>
                <path d="M127.495171,32.9545455 L127.495171,31.2787578 C126.667954,32.1050589 125.213458,32.9545455 123.231971,32.9545455 C120.572528,32.9545455 119.318182,31.6228389 119.318182,29.4648313 L119.318182,21.5909091 L122.502913,21.5909091 L122.502913,28.317245 C122.502913,29.8554782 123.381232,30.3601044 124.73544,30.3601044 C125.965086,30.3601044 126.943693,29.7405247 127.495171,29.0975647 L127.495171,21.5909091 L130.681818,21.5909091 L130.681818,32.9545455 L127.495171,32.9545455 Z" id="Fill-13" fill="#DA552F"></path>
                <path d="M132.954545,26.6919898 C132.954545,23.043314 135.699226,20.4545455 139.462292,20.4545455 C141.979346,20.4545455 143.504767,21.5144527 144.318182,22.5996806 L142.206972,24.5217434 C141.623126,23.6836528 140.733117,23.2400194 139.615482,23.2400194 C137.657246,23.2400194 136.285013,24.6211424 136.285013,26.6919898 C136.285013,28.7628372 137.657246,30.1680252 139.615482,30.1680252 C140.733117,30.1680252 141.623126,29.6752154 142.206972,28.8611899 L144.318182,30.784299 C143.504767,31.8695269 141.979346,32.9545455 139.462292,32.9545455 C135.699226,32.9545455 132.954545,30.3657769 132.954545,26.6919898" id="Fill-15" fill="#DA552F"></path>
                <path d="M146.293764,29.8208276 L146.293764,23.9073373 L144.318182,23.9073373 L144.318182,21.2915398 L146.293764,21.2915398 L146.293764,18.1818182 L149.432133,18.1818182 L149.432133,21.2915398 L151.852279,21.2915398 L151.852279,23.9073373 L149.432133,23.9073373 L149.432133,29.0199508 C149.432133,29.7498385 149.826369,30.2917551 150.518378,30.2917551 C150.987267,30.2917551 151.433718,30.1267805 151.604833,29.9388094 L152.272727,32.2236579 C151.804048,32.6245962 150.962942,32.9545455 149.653366,32.9545455 C147.454453,32.9545455 146.293764,31.8707122 146.293764,29.8208276" id="Fill-17" fill="#DA552F"></path>
                <polygon id="Fill-19" fill="#DA552F" points="171.750114 32.9545455 171.750114 26.089375 164.5896 26.089375 164.5896 32.9545455 161.363636 32.9545455 161.363636 17.0454545 164.5896 17.0454545 164.5896 23.1837784 171.750114 23.1837784 171.750114 17.0454545 175 17.0454545 175 32.9545455"></polygon>
                <path d="M186.58608,32.9545455 L186.58608,31.2787578 C185.758863,32.1050589 184.304367,32.9545455 182.32288,32.9545455 C179.663437,32.9545455 178.409091,31.6228389 178.409091,29.4648313 L178.409091,21.5909091 L181.593609,21.5909091 L181.593609,28.317245 C181.593609,29.8554782 182.472141,30.3601044 183.826349,30.3601044 C185.055995,30.3601044 186.034602,29.7405247 186.58608,29.0975647 L186.58608,21.5909091 L189.772727,21.5909091 L189.772727,32.9545455 L186.58608,32.9545455 Z" id="Fill-21" fill="#DA552F"></path>
                <path d="M201.341225,32.9545455 L201.341225,25.4594422 C201.341225,23.8071169 200.466707,23.2400194 199.113286,23.2400194 C197.86185,23.2400194 196.911906,23.9305809 196.359701,24.6211424 L196.359701,32.9545455 L193.181818,32.9545455 L193.181818,20.7496035 L196.359701,20.7496035 L196.359701,22.2784648 C197.136272,21.3911979 198.63842,20.4545455 200.591213,20.4545455 C203.269372,20.4545455 204.545455,21.9331841 204.545455,24.2507503 L204.545455,32.9545455 L201.341225,32.9545455 Z" id="Fill-23" fill="#DA552F"></path>
                <path d="M207.657401,29.8208276 L207.657401,23.9073373 L205.681818,23.9073373 L205.681818,21.2915398 L207.657401,21.2915398 L207.657401,18.1818182 L210.795769,18.1818182 L210.795769,21.2915398 L213.215915,21.2915398 L213.215915,23.9073373 L210.795769,23.9073373 L210.795769,29.0199508 C210.795769,29.7498385 211.190005,30.2917551 211.882014,30.2917551 C212.350903,30.2917551 212.797354,30.1267805 212.970357,29.9388094 L213.636364,32.2236579 C213.167475,32.6245962 212.326578,32.9545455 211.017002,32.9545455 C208.81809,32.9545455 207.657401,31.8707122 207.657401,29.8208276" id="Fill-25" fill="#DA552F"></path>
            </g>
        </g>
    </g>
</svg>