<?xml version="1.0" encoding="utf-8"?>
<!-- Generator: Adobe Illustrator 16.0.0, SVG Export Plug-In . SVG Version: 6.00 Build 0)  -->
<!DOCTYPE svg PUBLIC "-//W3C//DTD SVG 1.1//EN" "http://www.w3.org/Graphics/SVG/1.1/DTD/svg11.dtd">
<svg version="1.1" id="Layer_1" xmlns="http://www.w3.org/2000/svg" xmlns:xlink="http://www.w3.org/1999/xlink" x="0px" y="0px"
	 width="221.103px" height="221.102px" viewBox="0 0 221.103 221.102" enable-background="new 0 0 221.103 221.102"
	 xml:space="preserve">
<g>
	<g>
		<defs>
			<path id="SVGID_1_" d="M16.964,169.026L16.964,169.026v33.823v8.395c0,5.184,4.202,9.386,9.385,9.386
				c1.769,0,3.423-0.49,4.835-1.342h0.001l31.598-18.243c0.083-0.047,0.166-0.093,0.248-0.142l0.026-0.016l0,0
				c2.724-1.644,4.546-4.63,4.546-8.043l0,0v-23.636v-29.42v-31.944V97.569c0-5.182-4.203-9.384-9.384-9.384
				c-1.77,0-3.424,0.489-4.837,1.34l-31.599,18.244c-0.083,0.046-0.166,0.094-0.248,0.143l-0.026,0.015v0.001
				c-2.724,1.643-4.546,4.63-4.546,8.042l0,0V169.026z"/>
		</defs>
		<clipPath id="SVGID_2_">
			<use xlink:href="#SVGID_1_"  overflow="visible"/>
		</clipPath>
		<linearGradient id="SVGID_3_" gradientUnits="userSpaceOnUse" x1="26.7642" y1="101.3521" x2="57.8022" y2="207.4562">
			<stop  offset="0" style="stop-color:#345BA8"/>
			<stop  offset="1" style="stop-color:#38BDC1"/>
		</linearGradient>
		<rect x="16.964" y="88.185" clip-path="url(#SVGID_2_)" fill="url(#SVGID_3_)" width="50.64" height="132.444"/>
	</g>
	<g>
		<defs>
			<path id="SVGID_4_" d="M110.687,106.187c-7.634-4.408-21.431-12.374-43.082-24.874L44.615,68.04l-13.005-7.509l-0.448-0.258
				l-0.247-0.142l-9.139-5.277c-0.076-0.042-0.151-0.085-0.225-0.129l-0.033-0.019v0c-2.729-1.642-4.553-4.631-4.553-8.047V9.858
				c0-5.183,4.202-9.385,9.385-9.385c1.771,0,3.428,0.491,4.843,1.345l0,0L67.605,22.84l50.638,29.236l50.639,29.236l36.047,20.813
				l-0.009,0.016c1.603,0.793,2.998,2.052,3.958,3.717c2.592,4.488,1.054,10.229-3.434,12.82l-0.004,0.001l-50.63,29.231
				c4.484-2.592,6.02-8.33,3.428-12.816c-0.827-1.435-1.978-2.568-3.307-3.361c-0.081-0.047-0.709-0.375-0.694-0.401
				C133.438,119.323,122.529,113.024,110.687,106.187"/>
		</defs>
		<linearGradient id="SVGID_5_" gradientUnits="userSpaceOnUse" x1="16.9653" y1="74.1919" x2="210.1387" y2="74.1919">
			<stop  offset="0" style="stop-color:#3259A5"/>
			<stop  offset="1" style="stop-color:#24B3C4"/>
		</linearGradient>
		<use xlink:href="#SVGID_4_"  overflow="visible" fill-rule="evenodd" clip-rule="evenodd" fill="url(#SVGID_5_)"/>
		<clipPath id="SVGID_6_">
			<use xlink:href="#SVGID_4_"  overflow="visible"/>
		</clipPath>
		<linearGradient id="SVGID_7_" gradientUnits="userSpaceOnUse" x1="-23.9878" y1="-1.3984" x2="216.8443" y2="130.3222">
			<stop  offset="0" style="stop-color:#3259A5"/>
			<stop  offset="1" style="stop-color:#24B3C4"/>
		</linearGradient>
		<rect x="16.965" y="0.473" clip-path="url(#SVGID_6_)" fill="url(#SVGID_7_)" width="194.506" height="147.438"/>
	</g>
	<g>
		<defs>
			<path id="SVGID_8_" d="M16.965,169.024L16.965,169.024v33.822v8.395c0,5.185,4.202,9.386,9.384,9.386
				c1.77,0,3.424-0.489,4.837-1.341l0,0l31.6-18.241c0.083-0.048,0.166-0.096,0.246-0.145l0.026-0.015l0,0
				c2.724-1.644,4.546-4.631,4.546-8.043v-23.636l0.001-29.419v-31.943V97.569c0-5.183-4.202-9.385-9.385-9.385
				c-1.77,0-3.424,0.489-4.837,1.341l0,0l-31.598,18.243c-0.083,0.046-0.166,0.094-0.248,0.143l-0.026,0.015v0.001
				c-2.724,1.643-4.546,4.629-4.546,8.042V169.024z"/>
		</defs>
		<linearGradient id="SVGID_9_" gradientUnits="userSpaceOnUse" x1="39.3491" y1="67.793" x2="45.2471" y2="241.7822">
			<stop  offset="0" style="stop-color:#3259A5"/>
			<stop  offset="1" style="stop-color:#24B3C4"/>
		</linearGradient>
		<use xlink:href="#SVGID_8_"  overflow="visible" fill-rule="evenodd" clip-rule="evenodd" fill="url(#SVGID_9_)"/>
		<clipPath id="SVGID_10_">
			<use xlink:href="#SVGID_8_"  overflow="visible"/>
		</clipPath>
		<linearGradient id="SVGID_11_" gradientUnits="userSpaceOnUse" x1="39.3491" y1="67.793" x2="45.2471" y2="241.7812">
			<stop  offset="0" style="stop-color:#3259A5"/>
			<stop  offset="1" style="stop-color:#24B3C4"/>
		</linearGradient>
		<rect x="16.965" y="88.184" clip-path="url(#SVGID_10_)" fill="url(#SVGID_11_)" width="50.64" height="132.442"/>
	</g>
	<g>
		<defs>
			<path id="SVGID_12_" d="M81.528,147.826l0.027,0.016l0.016,0.009l0.015,0.01l0.016,0.009l0.016,0.009l0.015,0.01l0.015,0.008
				l0.016,0.01l0.06,0.035l0.017,0.01l0.015,0.008l0.016,0.008l0.015,0.01l0.016,0.008l8.353,4.823l23.243,13.419
				c2.831,1.703,6.477,1.857,9.539,0.089l31.875-18.402c4.485-2.593,6.021-8.33,3.432-12.816c-0.829-1.436-1.981-2.57-3.309-3.362
				c-0.082-0.047-0.71-0.375-0.694-0.4l-25.374-14.65l-10.622-6.132l-13.951-8.055c1.329,0.794,2.48,1.927,3.31,3.362
				c2.59,4.486,1.054,10.226-3.432,12.818l-5.478,3.162l-2.774,1.601l-7.803,4.507l-6.435,3.714l-14.08,8.125L81.528,147.826z"/>
		</defs>
		<linearGradient id="SVGID_13_" gradientUnits="userSpaceOnUse" x1="158.0215" y1="98.832" x2="56.773" y2="193.2005">
			<stop  offset="0" style="stop-color:#3259A5"/>
			<stop  offset="1" style="stop-color:#24B3C4"/>
		</linearGradient>
		<use xlink:href="#SVGID_12_"  overflow="visible" fill-rule="evenodd" clip-rule="evenodd" fill="url(#SVGID_13_)"/>
		<clipPath id="SVGID_14_">
			<use xlink:href="#SVGID_12_"  overflow="visible"/>
		</clipPath>
		<linearGradient id="SVGID_15_" gradientUnits="userSpaceOnUse" x1="155.8403" y1="96.4922" x2="54.5928" y2="190.8598">
			<stop  offset="0" style="stop-color:#3259A5"/>
			<stop  offset="1" style="stop-color:#24B3C4"/>
		</linearGradient>
		<rect x="67.602" y="102.496" clip-path="url(#SVGID_14_)" fill="url(#SVGID_15_)" width="93.229" height="65.587"/>
	</g>
</g>
</svg>
