<?xml version="1.0" encoding="utf-8"?>
<!-- Generator: Adobe Illustrator 16.0.0, SVG Export Plug-In . SVG Version: 6.00 Build 0)  -->
<!DOCTYPE svg PUBLIC "-//W3C//DTD SVG 1.1//EN" "http://www.w3.org/Graphics/SVG/1.1/DTD/svg11.dtd">
<svg version="1.1" id="Layer_1" xmlns="http://www.w3.org/2000/svg" xmlns:xlink="http://www.w3.org/1999/xlink" x="0px" y="0px"
	 width="744.074px" height="848px" viewBox="0 0 744.074 848" enable-background="new 0 0 744.074 848" xml:space="preserve">
<g>
	<g>
		<defs>
			<path id="SVGID_1_" d="M0,649.231L0,649.231v130.283v32.334C0,831.815,16.183,848,36.15,848c6.812,0,13.186-1.89,18.626-5.169
				h0.005l121.709-70.271c0.322-0.178,0.638-0.357,0.955-0.544l0.099-0.062l0,0c10.493-6.328,17.511-17.831,17.511-30.978l0,0
				v-91.042v-113.32V413.574v-39.579c0-19.961-16.187-36.148-36.146-36.148c-6.818,0-13.19,1.886-18.63,5.163L18.565,413.285
				c-0.322,0.177-0.639,0.359-0.955,0.546l-0.1,0.058v0.003C7.017,420.218,0,431.726,0,444.87l0,0V649.231z"/>
		</defs>
		<use xlink:href="#SVGID_1_"  overflow="visible" fill-rule="evenodd" clip-rule="evenodd" fill="#FFFFFF"/>
		<clipPath id="SVGID_2_">
			<use xlink:href="#SVGID_1_"  overflow="visible"/>
		</clipPath>
		<rect y="337.848" clip-path="url(#SVGID_2_)" fill="#FFFFFF" width="195.056" height="510.152"/>
	</g>
	<g>
		<defs>
			<path id="SVGID_3_" d="M361.003,407.188c-29.407-16.977-82.549-47.66-165.942-95.808l-88.556-51.125l-50.093-28.922l-1.725-0.996
				l-0.949-0.547l-35.202-20.326c-0.293-0.16-0.582-0.327-0.865-0.499l-0.127-0.073v-0.002
				c-10.511-6.323-17.539-17.837-17.539-30.996V36.149C0.005,16.188,16.192,0,36.156,0C42.98,0,49.361,1.892,54.81,5.178l0,0
				l140.251,80.974l195.047,112.614L585.163,311.38l138.847,80.165l-0.032,0.059c6.172,3.056,11.547,7.904,15.247,14.316
				c9.983,17.29,4.059,39.4-13.229,49.383l-0.016,0.004L530.961,567.9c17.271-9.984,23.188-32.085,13.205-49.366
				c-3.185-5.527-7.619-9.894-12.737-12.949c-0.312-0.18-2.729-1.443-2.673-1.546C448.637,457.785,406.62,433.525,361.003,407.188"
				/>
		</defs>
		<use xlink:href="#SVGID_3_"  overflow="visible" fill-rule="evenodd" clip-rule="evenodd" fill="#FFFFFF"/>
		<clipPath id="SVGID_4_">
			<use xlink:href="#SVGID_3_"  overflow="visible"/>
		</clipPath>
		<rect x="0.005" clip-path="url(#SVGID_4_)" fill="#FFFFFF" width="749.203" height="567.9"/>
	</g>
	<g>
		<defs>
			<path id="SVGID_5_" d="M0.005,649.225L0.005,649.225v130.279v32.334c0,19.968,16.187,36.152,36.146,36.152
				c6.817,0,13.19-1.887,18.631-5.164l0,0l121.714-70.266c0.321-0.184,0.638-0.367,0.95-0.556l0.099-0.057l0,0
				c10.493-6.329,17.511-17.837,17.511-30.98v-91.039l0.005-113.315v-123.04v-39.581c0-19.963-16.188-36.147-36.152-36.147
				c-6.818,0-13.19,1.885-18.63,5.164l0,0l-121.71,70.269c-0.321,0.18-0.638,0.362-0.954,0.551l-0.1,0.057v0.004
				c-10.493,6.325-17.51,17.83-17.51,30.976V649.225z"/>
		</defs>
		<use xlink:href="#SVGID_5_"  overflow="visible" fill-rule="evenodd" clip-rule="evenodd" fill="#FFFFFF"/>
		<clipPath id="SVGID_6_">
			<use xlink:href="#SVGID_5_"  overflow="visible"/>
		</clipPath>
		<rect x="0.005" y="337.845" clip-path="url(#SVGID_6_)" fill="#FFFFFF" width="195.056" height="510.145"/>
	</g>
	<g>
		<defs>
			<path id="SVGID_7_" d="M248.689,567.574l0.104,0.059l0.063,0.037l0.056,0.034l0.06,0.033l0.063,0.035l0.058,0.039l0.056,0.029
				l0.063,0.036l0.231,0.137l0.066,0.034l0.056,0.03l0.062,0.034l0.056,0.037l0.062,0.03l32.172,18.577l89.527,51.688
				c10.904,6.559,24.945,7.155,36.74,0.342l122.775-70.882c17.274-9.986,23.19-32.086,13.218-49.369
				c-3.194-5.529-7.632-9.897-12.747-12.951c-0.314-0.18-2.735-1.441-2.673-1.54l-97.734-56.429l-40.914-23.622l-53.734-31.025
				c5.12,3.06,9.553,7.422,12.748,12.951c9.978,17.283,4.06,39.39-13.22,49.375l-21.098,12.183l-10.686,6.164l-30.055,17.356
				l-24.784,14.306l-54.232,31.298L248.689,567.574z"/>
		</defs>
		<use xlink:href="#SVGID_7_"  overflow="visible" fill-rule="evenodd" clip-rule="evenodd" fill="#FFFFFF"/>
		<clipPath id="SVGID_8_">
			<use xlink:href="#SVGID_7_"  overflow="visible"/>
		</clipPath>
		<rect x="195.047" y="392.969" clip-path="url(#SVGID_8_)" fill="#FFFFFF" width="359.102" height="252.631"/>
	</g>
</g>
</svg>
