<?xml version="1.0" encoding="utf-8"?>
<!-- Generator: Adobe Illustrator 16.0.0, SVG Export Plug-In . SVG Version: 6.00 Build 0)  -->
<!DOCTYPE svg PUBLIC "-//W3C//DTD SVG 1.1//EN" "http://www.w3.org/Graphics/SVG/1.1/DTD/svg11.dtd">
<svg version="1.1" id="Layer_1" xmlns="http://www.w3.org/2000/svg" xmlns:xlink="http://www.w3.org/1999/xlink" x="0px" y="0px"
	 width="1258.58px" height="1258.58px" viewBox="0 0 1258.58 1258.58" enable-background="new 0 0 1258.58 1258.58"
	 xml:space="preserve">
<g>
	<path fill-rule="evenodd" clip-rule="evenodd" fill="#221F1F" d="M514.125,714.596c13.375,0,22.195-6.023,32.482-22.05
		l48.807-80.703h-24.109l-29.545,53.508l-3.674-53.508h-22.785l9.7,79.382c-3.089,3.969-5.292,4.851-8.671,4.851
		c-2.942,0-6.322-1.319-8.673-3.087l-11.909,16.167C500.6,712.537,506.039,714.596,514.125,714.596 M460.356,676.819
		c-6.319,0-10.291-3.531-10.291-8.38c0-7.645,6.764-12.344,16.023-12.344c5.44,0,10.878,1.32,14.702,2.792l-0.59,2.055
		C477.703,669.469,469.618,676.819,460.356,676.819z M450.802,692.109c9.26,0,17.199-3.825,23.519-10.586l-2.353,9.115h21.611
		l11.612-43.512c1.028-3.972,1.763-7.793,1.763-11.907c0-15.436-10.733-24.255-31.9-24.255c-11.169,0-21.165,2.202-29.253,5.586
		l3.529,17.639c5.736-2.353,13.379-4.263,21.022-4.263c11.025,0,14.847,3.821,14.847,9.261c0,2.353-0.442,4.115-0.881,5.882
		l-0.295,1.028c-6.614-2.057-13.67-3.529-22.197-3.529c-19.108,0-33.955,10.145-33.955,28.372
		C427.87,683.287,437.129,692.109,450.802,692.109z M373.806,639.628l8.381-31.457h14.699c6.762,0,11.025,1.468,14.113,4.556
		c2.205,2.203,3.382,5.145,3.382,8.527c0,11.614-10.147,18.373-25.138,18.373H373.806z M337.499,690.639h22.638l8.377-31.165h19.553
		c28.074,0,49.979-14.557,49.979-40.132c0-8.967-2.647-15.875-7.94-21.167c-7.496-7.499-17.636-10.438-32.339-10.438h-32.63
		L337.499,690.639z"/>
	<path fill-rule="evenodd" clip-rule="evenodd" fill="#221F1F" d="M1104.679,691.96c4.408,0,8.084-0.586,12.051-2.205l2.793-10.292
		c-4.114,1.619-7.642,2.353-11.023,2.353c-6.468,0-10.437-2.497-10.437-7.792c0-1.614,0.295-3.82,0.586-5.584l11.763-43.805h23.957
		l2.649-9.997h-23.962l6.172-22.93h-11.171l-6.175,22.93h-10.58l-2.646,9.997h10.435l-11.907,44.394
		c-0.589,2.353-1.028,5.291-1.028,7.938C1086.155,686.814,1093.798,691.96,1104.679,691.96 M1042.676,692.251
		c16.17,0,29.106-9.846,29.106-23.958c0-9.85-7.054-15.286-20.727-20.875c-12.053-4.701-15.14-7.938-15.14-12.936
		c0-6.32,5.729-12.054,16.462-12.054c8.234,0,16.168,3.677,22.494,8.823l6.611-7.795c-6.321-5.44-16.902-10.437-28.073-10.437
		c-17.641,0-28.814,10.437-28.814,23.375c0,10.585,7.791,15.58,21.461,20.873c11.024,4.26,14.407,7.938,14.407,12.935
		c0,7.645-8.086,12.642-16.76,12.642c-9.112,0-18.227-3.231-26.46-11.169l-7.349,7.347
		C1018.717,687.844,1030.915,692.251,1042.676,692.251z M951.569,648.006c4.117-13.963,15.584-25.426,30.578-25.426
		c13.083,0,18.961,9.111,18.961,19.545c0,2.648-0.294,4.561-0.734,5.881H951.569z M949.953,656.533h59.538
		c1.611-4.411,2.641-9.262,2.641-14.408c0-15.874-10.139-29.105-29.398-29.105c-25.428,0-44.248,23.813-44.248,47.041
		c0,19.258,13.525,32.342,33.665,32.342c13.38,0,22.343-5.002,29.843-11.32l-5.881-7.498c-6.911,5.586-13.522,8.968-23.371,8.968
		c-14.113,0-22.934-9.112-22.934-22.932C949.808,658.59,949.808,657.562,949.953,656.533z M881.189,692.251
		c11.612,0,19.7-6.174,26.607-13.961l-3.382,12.349h11.322l20.283-76.001h-11.315l-11.47,42.778
		c-3.819,14.553-15.727,24.694-27.486,24.694c-10.438,0-16.908-5.88-16.908-15.876c0-2.501,0.442-6.03,1.03-8.523l11.614-43.073
		h-11.32l-11.17,42.336c-1.029,3.969-1.913,8.232-1.913,11.76C857.082,683.141,866.639,692.251,881.189,692.251z M799.642,682.405
		c-12.644,0-21.464-9.117-21.464-23.225c0-19.408,13.67-36.162,31.752-36.162c13.964,0,23.52,10.29,23.52,23.518
		C833.449,665.06,816.544,682.405,799.642,682.405z M813.902,720.037h11.315l28.077-105.399h-11.32l-4.555,17.053
		c-4.117-9.997-12.935-18.67-28.52-18.67c-22.194,0-42.629,20.289-42.629,47.184c0,19.259,12.935,32.198,30.134,32.198
		c12.204,0,21.462-6.616,28.813-14.846L813.902,720.037z M699.715,648.006c4.115-13.963,15.581-25.426,30.576-25.426
		c13.083,0,18.963,9.111,18.963,19.545c0,2.648-0.295,4.561-0.737,5.881H699.715z M698.096,656.533h59.536
		c1.617-4.411,2.646-9.262,2.646-14.408c0-15.874-10.145-29.105-29.398-29.105c-25.429,0-44.25,23.813-44.25,47.041
		c0,19.258,13.524,32.342,33.666,32.342c13.375,0,22.343-5.002,29.838-11.32l-5.876-7.498c-6.911,5.586-13.526,8.968-23.375,8.968
		c-14.112,0-22.93-9.112-22.93-22.932C697.953,658.59,697.953,657.562,698.096,656.533z M610.961,640.215l11.322-41.743h27.632
		c14.994,0,22.786,5.729,23.521,15.137c0.589,5.438-0.881,10.145-4.115,14.405c-4.557,7.499-15.435,12.202-30.428,12.202H610.961z
		 M585.828,690.639h11.612l10.729-39.984h27.932l20.282,39.984h13.379l-21.168-41.164c14.994-2.348,26.167-8.816,31.017-18.813
		c4.264-6.471,5.88-13.67,4.56-21.317c-1.914-13.668-13.966-21.608-33.664-21.608h-37.046L585.828,690.639z"/>
	<path fill-rule="evenodd" clip-rule="evenodd" fill="#221F1F" d="M610.961,640.215l11.322-41.743h27.632
		c14.994,0,22.786,5.729,23.521,15.137c0.589,5.438-0.881,10.145-4.115,14.405c-4.557,7.499-15.435,12.202-30.428,12.202H610.961z
		 M585.828,690.639h11.612l10.729-39.984h27.932l20.282,39.984h13.379l-21.168-41.164c14.994-2.348,26.167-8.816,31.017-18.813
		c4.264-6.471,5.88-13.67,4.56-21.317c-1.914-13.668-13.966-21.608-33.664-21.608h-37.046L585.828,690.639z"/>
	<path fill-rule="evenodd" clip-rule="evenodd" fill="#221F1F" d="M699.715,648.006c4.115-13.963,15.581-25.426,30.576-25.426
		c13.083,0,18.963,9.111,18.963,19.545c0,2.648-0.295,4.561-0.737,5.881H699.715z M698.096,656.533h59.536
		c1.617-4.411,2.646-9.262,2.646-14.408c0-15.874-10.145-29.105-29.398-29.105c-25.429,0-44.25,23.813-44.25,47.041
		c0,19.258,13.524,32.342,33.666,32.342c13.375,0,22.343-5.002,29.838-11.32l-5.876-7.498c-6.911,5.586-13.526,8.968-23.375,8.968
		c-14.112,0-22.93-9.112-22.93-22.932C697.953,658.59,697.953,657.562,698.096,656.533z"/>
	<path fill-rule="evenodd" clip-rule="evenodd" fill="#221F1F" d="M799.642,682.405c-12.644,0-21.464-9.117-21.464-23.225
		c0-19.408,13.67-36.162,31.752-36.162c13.964,0,23.52,10.29,23.52,23.518C833.449,665.06,816.544,682.405,799.642,682.405
		 M813.902,720.037h11.315l28.077-105.399h-11.32l-4.555,17.053c-4.117-9.997-12.935-18.67-28.52-18.67
		c-22.194,0-42.629,20.289-42.629,47.184c0,19.259,12.935,32.198,30.134,32.198c12.204,0,21.462-6.616,28.813-14.846
		L813.902,720.037z"/>
	<path fill-rule="evenodd" clip-rule="evenodd" fill="#221F1F" d="M881.189,692.251c11.612,0,19.7-6.174,26.607-13.961
		l-3.382,12.349h11.322l20.283-76.001h-11.315l-11.47,42.778c-3.819,14.553-15.727,24.694-27.486,24.694
		c-10.438,0-16.908-5.88-16.908-15.876c0-2.501,0.442-6.03,1.03-8.523l11.614-43.073h-11.32l-11.17,42.336
		c-1.029,3.969-1.913,8.232-1.913,11.76C857.082,683.141,866.639,692.251,881.189,692.251"/>
	<path fill-rule="evenodd" clip-rule="evenodd" fill="#221F1F" d="M951.569,648.006c4.117-13.963,15.584-25.426,30.578-25.426
		c13.083,0,18.961,9.111,18.961,19.545c0,2.648-0.294,4.561-0.734,5.881H951.569z M949.953,656.533h59.538
		c1.611-4.411,2.641-9.262,2.641-14.408c0-15.874-10.139-29.105-29.398-29.105c-25.428,0-44.248,23.813-44.248,47.041
		c0,19.258,13.525,32.342,33.665,32.342c13.38,0,22.343-5.002,29.843-11.32l-5.881-7.498c-6.911,5.586-13.522,8.968-23.371,8.968
		c-14.113,0-22.934-9.112-22.934-22.932C949.808,658.59,949.808,657.562,949.953,656.533z"/>
	<path fill-rule="evenodd" clip-rule="evenodd" fill="#221F1F" d="M1042.676,692.251c16.17,0,29.106-9.846,29.106-23.958
		c0-9.85-7.054-15.286-20.727-20.875c-12.053-4.701-15.14-7.938-15.14-12.936c0-6.32,5.729-12.054,16.462-12.054
		c8.234,0,16.168,3.677,22.494,8.823l6.611-7.795c-6.321-5.44-16.902-10.437-28.073-10.437c-17.641,0-28.814,10.437-28.814,23.375
		c0,10.585,7.791,15.58,21.461,20.873c11.024,4.26,14.407,7.938,14.407,12.935c0,7.645-8.086,12.642-16.76,12.642
		c-9.112,0-18.227-3.231-26.46-11.169l-7.349,7.347C1018.717,687.844,1030.915,692.251,1042.676,692.251"/>
	<path fill-rule="evenodd" clip-rule="evenodd" fill="#221F1F" d="M1104.679,691.96c4.408,0,8.084-0.586,12.051-2.205l2.793-10.292
		c-4.114,1.619-7.642,2.353-11.023,2.353c-6.468,0-10.437-2.497-10.437-7.792c0-1.614,0.295-3.82,0.586-5.584l11.763-43.805h23.957
		l2.649-9.997h-23.962l6.172-22.93h-11.171l-6.175,22.93h-10.58l-2.646,9.997h10.435l-11.907,44.394
		c-0.589,2.353-1.028,5.291-1.028,7.938C1086.155,686.814,1093.798,691.96,1104.679,691.96"/>
</g>
<path fill-rule="evenodd" clip-rule="evenodd" fill="#221F1F" d="M294.28,626.203c-0.96-1.665-2.356-2.924-3.958-3.717l0.009-0.016
	l-36.047-20.813l-50.639-29.236l-50.638-29.236l-36.412-21.022c-1.415-0.854-3.071-1.345-4.843-1.345
	c-5.183,0-9.385,4.203-9.385,9.385v36.799c0,3.417,1.824,6.406,4.553,8.047v0l0.033,0.019c0.074,0.044,0.148,0.088,0.225,0.129
	l9.139,5.277l0.247,0.142l0.448,0.258l13.005,7.509l22.99,13.273c21.651,12.5,36.688,21.183,36.688,21.183
	c1.329,0.794,2.48,1.927,3.31,3.362c2.59,4.486,1.054,10.226-3.432,12.818l-5.478,3.162l-2.774,1.601l-7.803,4.507l-6.435,3.714
	l-14.077,8.124v-31.939v-10.275c0-5.182-4.203-9.384-9.384-9.384c-1.77,0-3.424,0.489-4.837,1.34l-31.599,18.244
	c-0.083,0.046-0.166,0.094-0.248,0.143l-0.026,0.015v0.001c-2.724,1.643-4.546,4.63-4.546,8.042v53.057v33.823v8.395
	c0,5.184,4.202,9.386,9.385,9.386c1.769,0,3.423-0.49,4.835-1.342h0.001l31.598-18.243c0.083-0.047,0.166-0.093,0.248-0.142
	l0.026-0.016c2.724-1.644,4.546-4.63,4.546-8.043v-23.636v-29.42v-0.003l13.924,8.04l0.027,0.016l0.016,0.009l0.015,0.01
	l0.016,0.009l0.016,0.009l0.015,0.01l0.015,0.008l0.016,0.01l0.06,0.035l0.017,0.01l0.015,0.008l0.016,0.008l0.015,0.01l0.016,0.008
	l8.353,4.823l23.243,13.419c2.831,1.703,6.477,1.857,9.539,0.089l31.875-18.402c0.002-0.001,0.004-0.003,0.006-0.004l50.625-29.229
	l0.004-0.001C295.334,636.432,296.872,630.691,294.28,626.203z M242.415,666.495c0.063-0.067,0.116-0.142,0.176-0.211
	C242.531,666.354,242.478,666.428,242.415,666.495z"/>
</svg>
