<?xml version="1.0" encoding="utf-8"?>
<!-- Generator: Adobe Illustrator 16.0.0, SVG Export Plug-In . SVG Version: 6.00 Build 0)  -->
<!DOCTYPE svg PUBLIC "-//W3C//DTD SVG 1.1//EN" "http://www.w3.org/Graphics/SVG/1.1/DTD/svg11.dtd">
<svg version="1.1" id="Layer_1" xmlns="http://www.w3.org/2000/svg" xmlns:xlink="http://www.w3.org/1999/xlink" x="0px" y="0px"
	 width="1034.653px" height="220.156px" viewBox="0 0 1034.653 220.156" enable-background="new 0 0 1034.653 220.156"
	 xml:space="preserve">
<g>
	<path fill-rule="evenodd" clip-rule="evenodd" fill="#FFFFFF" d="M411.76,193.777c13.375,0,22.195-6.023,32.482-22.05
		l48.807-80.703H468.94l-29.545,53.508l-3.674-53.508h-22.785l9.7,79.382c-3.089,3.969-5.292,4.851-8.671,4.851
		c-2.942,0-6.322-1.319-8.673-3.087l-11.909,16.167C398.235,191.719,403.674,193.777,411.76,193.777 M357.991,156.001
		c-6.319,0-10.291-3.531-10.291-8.38c0-7.645,6.764-12.344,16.023-12.344c5.44,0,10.878,1.32,14.702,2.792l-0.59,2.055
		C375.338,148.65,367.253,156.001,357.991,156.001z M348.438,171.291c9.26,0,17.199-3.825,23.519-10.586l-2.353,9.115h21.611
		l11.612-43.512c1.028-3.972,1.763-7.793,1.763-11.907c0-15.436-10.733-24.255-31.9-24.255c-11.169,0-21.165,2.202-29.253,5.586
		l3.529,17.639c5.736-2.353,13.379-4.263,21.022-4.263c11.025,0,14.847,3.821,14.847,9.261c0,2.353-0.442,4.115-0.881,5.882
		l-0.295,1.028c-6.614-2.057-13.67-3.529-22.197-3.529c-19.108,0-33.955,10.145-33.955,28.372
		C325.505,162.469,334.765,171.291,348.438,171.291z M271.441,118.81l8.381-31.457h14.699c6.762,0,11.025,1.468,14.113,4.556
		c2.205,2.203,3.382,5.145,3.382,8.527c0,11.614-10.147,18.373-25.138,18.373H271.441z M235.134,169.82h22.638l8.377-31.165h19.553
		c28.074,0,49.979-14.557,49.979-40.132c0-8.967-2.647-15.875-7.94-21.167c-7.496-7.499-17.636-10.438-32.339-10.438h-32.63
		L235.134,169.82z"/>
	<path fill-rule="evenodd" clip-rule="evenodd" fill="#FFFFFF" d="M1002.314,171.142c4.408,0,8.084-0.586,12.051-2.205l2.793-10.292
		c-4.114,1.619-7.642,2.353-11.023,2.353c-6.468,0-10.437-2.497-10.437-7.792c0-1.614,0.295-3.82,0.586-5.584l11.763-43.805h23.957
		l2.649-9.997h-23.962l6.172-22.93h-11.171l-6.175,22.93h-10.58l-2.646,9.997h10.435l-11.907,44.394
		c-0.589,2.353-1.028,5.291-1.028,7.938C983.791,165.996,991.433,171.142,1002.314,171.142 M940.311,171.433
		c16.17,0,29.106-9.846,29.106-23.958c0-9.85-7.054-15.286-20.727-20.875c-12.053-4.701-15.14-7.938-15.14-12.936
		c0-6.32,5.729-12.054,16.462-12.054c8.234,0,16.168,3.677,22.494,8.823l6.611-7.795c-6.321-5.44-16.902-10.437-28.073-10.437
		c-17.641,0-28.814,10.437-28.814,23.375c0,10.585,7.791,15.58,21.461,20.873c11.024,4.26,14.407,7.938,14.407,12.935
		c0,7.645-8.086,12.642-16.76,12.642c-9.112,0-18.227-3.231-26.46-11.169l-7.349,7.347
		C916.352,167.025,928.55,171.433,940.311,171.433z M849.205,127.188c4.117-13.963,15.584-25.426,30.578-25.426
		c13.083,0,18.961,9.111,18.961,19.545c0,2.648-0.294,4.561-0.734,5.881H849.205z M847.588,135.715h59.538
		c1.611-4.411,2.641-9.262,2.641-14.408c0-15.874-10.139-29.105-29.398-29.105c-25.428,0-44.248,23.813-44.248,47.041
		c0,19.258,13.525,32.342,33.665,32.342c13.38,0,22.343-5.002,29.843-11.32l-5.881-7.498c-6.911,5.586-13.522,8.968-23.371,8.968
		c-14.113,0-22.934-9.112-22.934-22.932C847.443,137.771,847.443,136.743,847.588,135.715z M778.825,171.433
		c11.612,0,19.7-6.174,26.607-13.961l-3.382,12.349h11.322l20.283-76.001H822.34l-11.47,42.778
		c-3.819,14.553-15.727,24.694-27.486,24.694c-10.438,0-16.908-5.88-16.908-15.876c0-2.501,0.442-6.03,1.03-8.523l11.614-43.073
		H767.8l-11.17,42.336c-1.029,3.969-1.913,8.232-1.913,11.76C754.717,162.322,764.274,171.433,778.825,171.433z M697.277,161.587
		c-12.644,0-21.464-9.117-21.464-23.225c0-19.408,13.67-36.162,31.752-36.162c13.964,0,23.52,10.29,23.52,23.518
		C731.084,144.241,714.179,161.587,697.277,161.587z M711.538,199.219h11.315L750.93,93.819h-11.32l-4.555,17.053
		c-4.117-9.997-12.935-18.67-28.52-18.67c-22.194,0-42.629,20.289-42.629,47.184c0,19.259,12.935,32.198,30.134,32.198
		c12.204,0,21.462-6.616,28.813-14.846L711.538,199.219z M597.35,127.188c4.115-13.963,15.581-25.426,30.576-25.426
		c13.083,0,18.963,9.111,18.963,19.545c0,2.648-0.295,4.561-0.737,5.881H597.35z M595.731,135.715h59.536
		c1.617-4.411,2.646-9.262,2.646-14.408c0-15.874-10.145-29.105-29.398-29.105c-25.429,0-44.25,23.813-44.25,47.041
		c0,19.258,13.524,32.342,33.666,32.342c13.375,0,22.343-5.002,29.838-11.32l-5.876-7.498c-6.911,5.586-13.526,8.968-23.375,8.968
		c-14.112,0-22.93-9.112-22.93-22.932C595.588,137.771,595.588,136.743,595.731,135.715z M508.597,119.396l11.322-41.743h27.632
		c14.994,0,22.786,5.729,23.521,15.137c0.589,5.438-0.881,10.145-4.115,14.405c-4.557,7.499-15.435,12.202-30.428,12.202H508.597z
		 M483.463,169.82h11.612l10.729-39.984h27.932l20.282,39.984h13.379l-21.168-41.164c14.994-2.348,26.167-8.816,31.017-18.813
		c4.264-6.471,5.88-13.67,4.56-21.317c-1.914-13.668-13.966-21.608-33.664-21.608h-37.046L483.463,169.82z"/>
	<path fill-rule="evenodd" clip-rule="evenodd" fill="#FFFFFF" d="M508.597,119.396l11.322-41.743h27.632
		c14.994,0,22.786,5.729,23.521,15.137c0.589,5.438-0.881,10.145-4.115,14.405c-4.557,7.499-15.435,12.202-30.428,12.202H508.597z
		 M483.463,169.82h11.612l10.729-39.984h27.932l20.282,39.984h13.379l-21.168-41.164c14.994-2.348,26.167-8.816,31.017-18.813
		c4.264-6.471,5.88-13.67,4.56-21.317c-1.914-13.668-13.966-21.608-33.664-21.608h-37.046L483.463,169.82z"/>
	<path fill-rule="evenodd" clip-rule="evenodd" fill="#FFFFFF" d="M597.35,127.188c4.115-13.963,15.581-25.426,30.576-25.426
		c13.083,0,18.963,9.111,18.963,19.545c0,2.648-0.295,4.561-0.737,5.881H597.35z M595.731,135.715h59.536
		c1.617-4.411,2.646-9.262,2.646-14.408c0-15.874-10.145-29.105-29.398-29.105c-25.429,0-44.25,23.813-44.25,47.041
		c0,19.258,13.524,32.342,33.666,32.342c13.375,0,22.343-5.002,29.838-11.32l-5.876-7.498c-6.911,5.586-13.526,8.968-23.375,8.968
		c-14.112,0-22.93-9.112-22.93-22.932C595.588,137.771,595.588,136.743,595.731,135.715z"/>
	<path fill-rule="evenodd" clip-rule="evenodd" fill="#FFFFFF" d="M697.277,161.587c-12.644,0-21.464-9.117-21.464-23.225
		c0-19.408,13.67-36.162,31.752-36.162c13.964,0,23.52,10.29,23.52,23.518C731.084,144.241,714.179,161.587,697.277,161.587
		 M711.538,199.219h11.315L750.93,93.819h-11.32l-4.555,17.053c-4.117-9.997-12.935-18.67-28.52-18.67
		c-22.194,0-42.629,20.289-42.629,47.184c0,19.259,12.935,32.198,30.134,32.198c12.204,0,21.462-6.616,28.813-14.846
		L711.538,199.219z"/>
	<path fill-rule="evenodd" clip-rule="evenodd" fill="#FFFFFF" d="M778.825,171.433c11.612,0,19.7-6.174,26.607-13.961
		l-3.382,12.349h11.322l20.283-76.001H822.34l-11.47,42.778c-3.819,14.553-15.727,24.694-27.486,24.694
		c-10.438,0-16.908-5.88-16.908-15.876c0-2.501,0.442-6.03,1.03-8.523l11.614-43.073H767.8l-11.17,42.336
		c-1.029,3.969-1.913,8.232-1.913,11.76C754.717,162.322,764.274,171.433,778.825,171.433"/>
	<path fill-rule="evenodd" clip-rule="evenodd" fill="#FFFFFF" d="M849.205,127.188c4.117-13.963,15.584-25.426,30.578-25.426
		c13.083,0,18.961,9.111,18.961,19.545c0,2.648-0.294,4.561-0.734,5.881H849.205z M847.588,135.715h59.538
		c1.611-4.411,2.641-9.262,2.641-14.408c0-15.874-10.139-29.105-29.398-29.105c-25.428,0-44.248,23.813-44.248,47.041
		c0,19.258,13.525,32.342,33.665,32.342c13.38,0,22.343-5.002,29.843-11.32l-5.881-7.498c-6.911,5.586-13.522,8.968-23.371,8.968
		c-14.113,0-22.934-9.112-22.934-22.932C847.443,137.771,847.443,136.743,847.588,135.715z"/>
	<path fill-rule="evenodd" clip-rule="evenodd" fill="#FFFFFF" d="M940.311,171.433c16.17,0,29.106-9.846,29.106-23.958
		c0-9.85-7.054-15.286-20.727-20.875c-12.053-4.701-15.14-7.938-15.14-12.936c0-6.32,5.729-12.054,16.462-12.054
		c8.234,0,16.168,3.677,22.494,8.823l6.611-7.795c-6.321-5.44-16.902-10.437-28.073-10.437c-17.641,0-28.814,10.437-28.814,23.375
		c0,10.585,7.791,15.58,21.461,20.873c11.024,4.26,14.407,7.938,14.407,12.935c0,7.645-8.086,12.642-16.76,12.642
		c-9.112,0-18.227-3.231-26.46-11.169l-7.349,7.347C916.352,167.025,928.55,171.433,940.311,171.433"/>
	<path fill-rule="evenodd" clip-rule="evenodd" fill="#FFFFFF" d="M1002.314,171.142c4.408,0,8.084-0.586,12.051-2.205l2.793-10.292
		c-4.114,1.619-7.642,2.353-11.023,2.353c-6.468,0-10.437-2.497-10.437-7.792c0-1.614,0.295-3.82,0.586-5.584l11.763-43.805h23.957
		l2.649-9.997h-23.962l6.172-22.93h-11.171l-6.175,22.93h-10.58l-2.646,9.997h10.435l-11.907,44.394
		c-0.589,2.353-1.028,5.291-1.028,7.938C983.791,165.996,991.433,171.142,1002.314,171.142"/>
</g>
<g>
	<defs>
		<path id="SVGID_1_" d="M0,168.553L0,168.553v33.823v8.395c0,5.184,4.202,9.386,9.385,9.386c1.769,0,3.423-0.49,4.835-1.342h0.001
			l31.598-18.243c0.083-0.047,0.166-0.093,0.248-0.142l0.026-0.016l0,0c2.724-1.644,4.546-4.63,4.546-8.043l0,0v-23.636v-29.42
			v-31.944V97.096c0-5.182-4.203-9.384-9.384-9.384c-1.77,0-3.424,0.489-4.837,1.34L4.82,107.296
			c-0.083,0.046-0.166,0.094-0.248,0.143l-0.026,0.015v0.001C1.822,109.097,0,112.084,0,115.496l0,0V168.553z"/>
	</defs>
	<use xlink:href="#SVGID_1_"  overflow="visible" fill-rule="evenodd" clip-rule="evenodd" fill="#FFFFFF"/>
	<clipPath id="SVGID_2_">
		<use xlink:href="#SVGID_1_"  overflow="visible"/>
	</clipPath>
	<rect y="87.712" clip-path="url(#SVGID_2_)" fill="#FFFFFF" width="50.64" height="132.444"/>
</g>
<g>
	<defs>
		<path id="SVGID_3_" d="M93.723,105.714c-7.634-4.408-21.431-12.374-43.082-24.874l-22.99-13.273l-13.005-7.509L14.198,59.8
			l-0.247-0.142l-9.139-5.277c-0.076-0.042-0.151-0.085-0.225-0.129l-0.033-0.019v0c-2.729-1.642-4.553-4.631-4.553-8.047V9.385
			C0.001,4.203,4.204,0,9.387,0c1.771,0,3.428,0.491,4.843,1.345l0,0l36.412,21.022l50.638,29.236l50.639,29.236l36.047,20.813
			l-0.009,0.016c1.603,0.793,2.998,2.052,3.958,3.717c2.592,4.488,1.054,10.229-3.434,12.82l-0.004,0.001l-50.63,29.231
			c4.484-2.592,6.02-8.33,3.428-12.816c-0.827-1.435-1.978-2.568-3.307-3.361c-0.081-0.047-0.709-0.375-0.694-0.401
			C116.474,118.85,105.565,112.551,93.723,105.714"/>
	</defs>
	<use xlink:href="#SVGID_3_"  overflow="visible" fill-rule="evenodd" clip-rule="evenodd" fill="#FFFFFF"/>
	<clipPath id="SVGID_4_">
		<use xlink:href="#SVGID_3_"  overflow="visible"/>
	</clipPath>
	<rect x="0.001" clip-path="url(#SVGID_4_)" fill="#FFFFFF" width="194.506" height="147.438"/>
</g>
<g>
	<defs>
		<path id="SVGID_5_" d="M0.001,168.551L0.001,168.551v33.822v8.395c0,5.185,4.202,9.386,9.384,9.386
			c1.77,0,3.424-0.489,4.837-1.341l0,0l31.6-18.241c0.083-0.048,0.166-0.096,0.246-0.145l0.026-0.015l0,0
			c2.724-1.644,4.546-4.631,4.546-8.043v-23.636l0.001-29.419v-31.943V97.096c0-5.183-4.202-9.385-9.385-9.385
			c-1.77,0-3.424,0.489-4.837,1.341l0,0L4.821,107.295c-0.083,0.046-0.166,0.094-0.248,0.143l-0.026,0.015v0.001
			c-2.724,1.643-4.546,4.629-4.546,8.042V168.551z"/>
	</defs>
	<use xlink:href="#SVGID_5_"  overflow="visible" fill-rule="evenodd" clip-rule="evenodd" fill="#FFFFFF"/>
	<clipPath id="SVGID_6_">
		<use xlink:href="#SVGID_5_"  overflow="visible"/>
	</clipPath>
	<rect x="0.001" y="87.711" clip-path="url(#SVGID_6_)" fill="#FFFFFF" width="50.64" height="132.442"/>
</g>
<g>
	<defs>
		<path id="SVGID_7_" d="M64.564,147.353l0.027,0.016l0.016,0.009l0.015,0.01l0.016,0.009l0.016,0.009l0.015,0.01l0.015,0.008
			l0.016,0.01l0.06,0.035l0.017,0.01l0.015,0.008l0.016,0.008l0.015,0.01l0.016,0.008l8.353,4.823l23.243,13.419
			c2.831,1.703,6.477,1.857,9.539,0.089l31.875-18.402c4.485-2.593,6.021-8.33,3.432-12.816c-0.829-1.436-1.981-2.57-3.309-3.362
			c-0.082-0.047-0.71-0.375-0.694-0.4l-25.374-14.65l-10.622-6.132l-13.951-8.055c1.329,0.794,2.48,1.927,3.31,3.362
			c2.59,4.486,1.054,10.226-3.432,12.818l-5.478,3.162l-2.774,1.601l-7.803,4.507l-6.435,3.714l-14.08,8.125L64.564,147.353z"/>
	</defs>
	<use xlink:href="#SVGID_7_"  overflow="visible" fill-rule="evenodd" clip-rule="evenodd" fill="#FFFFFF"/>
	<clipPath id="SVGID_8_">
		<use xlink:href="#SVGID_7_"  overflow="visible"/>
	</clipPath>
	<rect x="50.638" y="102.022" clip-path="url(#SVGID_8_)" fill="#FFFFFF" width="93.229" height="65.587"/>
</g>
</svg>
