<?xml version="1.0" encoding="utf-8"?>
<!-- Generator: Adobe Illustrator 16.0.0, SVG Export Plug-In . SVG Version: 6.00 Build 0)  -->
<!DOCTYPE svg PUBLIC "-//W3C//DTD SVG 1.1//EN" "http://www.w3.org/Graphics/SVG/1.1/DTD/svg11.dtd">
<svg version="1.1" id="Layer_1" xmlns="http://www.w3.org/2000/svg" xmlns:xlink="http://www.w3.org/1999/xlink" x="0px" y="0px"
	 width="1258.58px" height="1258.58px" viewBox="0 0 1258.58 1258.58" enable-background="new 0 0 1258.58 1258.58"
	 xml:space="preserve">
<path fill-rule="evenodd" clip-rule="evenodd" fill="#FFFFFF" d="M282.119,1124.43c20.744,0,34.424-9.343,50.38-34.2l75.7-125.171
	h-37.393l-45.825,82.989l-5.699-82.989h-35.339l15.045,123.121c-4.792,6.155-8.208,7.523-13.449,7.523
	c-4.563,0-9.806-2.048-13.452-4.789l-18.472,25.076C261.141,1121.236,269.577,1124.43,282.119,1124.43 M198.723,1065.836
	c-9.801,0-15.961-5.477-15.961-12.994c0-11.859,10.491-19.148,24.853-19.148c8.438,0,16.872,2.047,22.803,4.33l-0.915,3.187
	C225.628,1054.436,213.089,1065.836,198.723,1065.836z M183.905,1089.55c14.361,0,26.676-5.93,36.478-16.416l-3.65,14.137h33.52
	l18.01-67.486c1.596-6.161,2.735-12.088,2.735-18.469c0-23.941-16.646-37.62-49.477-37.62c-17.324,0-32.828,3.416-45.373,8.663
	l5.474,27.358c8.896-3.647,20.75-6.61,32.605-6.61c17.1,0,23.027,5.926,23.027,14.362c0,3.649-0.686,6.384-1.368,9.123l-0.458,1.596
	c-10.258-3.19-21.202-5.474-34.428-5.474c-29.637,0-52.665,15.733-52.665,44.005C148.336,1075.868,162.698,1089.55,183.905,1089.55z
	 M64.483,1008.153l12.998-48.789h22.799c10.488,0,17.101,2.276,21.889,7.066c3.42,3.415,5.247,7.979,5.247,13.226
	c0,18.012-15.739,28.497-38.989,28.497H64.483z M8.171,1087.271h35.111l12.992-48.337h30.327c43.543,0,77.519-22.576,77.519-62.245
	c0-13.908-4.106-24.623-12.314-32.829c-11.626-11.631-27.354-16.189-50.158-16.189H51.039L8.171,1087.271z"/>
<path fill-rule="evenodd" clip-rule="evenodd" fill="#FFFFFF" d="M1198.069,1089.318c6.837,0,12.539-0.909,18.692-3.418
	l4.333-15.963c-6.385,2.511-11.854,3.648-17.1,3.648c-10.032,0-16.188-3.872-16.188-12.084c0-2.507,0.459-5.926,0.91-8.66
	l18.244-67.944h37.159l4.107-15.505h-37.164l9.572-35.565h-17.325l-9.576,35.565h-16.412l-4.103,15.505h16.185l-18.468,68.854
	c-0.915,3.648-1.596,8.205-1.596,12.312C1169.341,1081.338,1181.193,1089.318,1198.069,1089.318 M1101.905,1089.771
	c25.078,0,45.142-15.271,45.142-37.157c0-15.277-10.94-23.71-32.144-32.377c-18.695-7.294-23.484-12.312-23.484-20.063
	c0-9.804,8.888-18.696,25.532-18.696c12.771,0,25.078,5.703,34.889,13.685l10.256-12.089c-9.804-8.438-26.217-16.189-43.542-16.189
	c-27.363,0-44.692,16.189-44.692,36.256c0,16.417,12.084,24.165,33.285,32.373c17.102,6.609,22.348,12.313,22.348,20.064
	c0,11.854-12.543,19.607-25.993,19.607c-14.135,0-28.271-5.014-41.041-17.324l-11.397,11.396
	C1064.742,1082.936,1083.662,1089.771,1101.905,1089.771z M960.598,1021.146c6.385-21.655,24.17-39.436,47.427-39.436
	c20.292,0,29.407,14.131,29.407,30.316c0,4.106-0.454,7.072-1.139,9.119H960.598z M958.09,1034.373h92.345
	c2.499-6.841,4.095-14.365,4.095-22.346c0-24.622-15.726-45.145-45.596-45.145c-39.44,0-68.629,36.936-68.629,72.96
	c0,29.871,20.977,50.162,52.215,50.162c20.751,0,34.654-7.756,46.284-17.557l-9.12-11.63c-10.719,8.665-20.975,13.911-36.249,13.911
	c-21.89,0-35.568-14.136-35.568-35.567C957.866,1037.564,957.866,1035.969,958.09,1034.373z M851.438,1089.771
	c18.011,0,30.556-9.576,41.267-21.654l-5.245,19.154h17.562l31.461-117.878H918.93l-17.787,66.348
	c-5.926,22.574-24.394,38.304-42.634,38.304c-16.189,0-26.222-9.12-26.222-24.625c0-3.878,0.685-9.352,1.596-13.22l18.013-66.807
	h-17.557l-17.325,65.664c-1.596,6.153-2.966,12.768-2.966,18.237C814.048,1075.64,828.869,1089.771,851.438,1089.771z
	 M724.956,1074.5c-19.61,0-33.289-14.141-33.289-36.021c0-30.103,21.203-56.088,49.247-56.088c21.659,0,36.478,15.961,36.478,36.477
	C777.392,1047.597,751.173,1074.5,724.956,1074.5z M747.075,1132.867h17.552l43.547-163.475h-17.557l-7.065,26.449
	c-6.386-15.505-20.063-28.959-44.233-28.959c-34.426,0-66.118,31.47-66.118,73.185c0,29.87,20.062,49.938,46.738,49.938
	c18.928,0,33.286-10.263,44.688-23.025L747.075,1132.867z M569.97,1021.146c6.383-21.655,24.166-39.436,47.425-39.436
	c20.29,0,29.408,14.131,29.408,30.316c0,4.106-0.453,7.072-1.141,9.119H569.97z M567.459,1034.373h92.34
	c2.507-6.841,4.103-14.365,4.103-22.346c0-24.622-15.732-45.145-45.597-45.145c-39.44,0-68.63,36.936-68.63,72.96
	c0,29.871,20.975,50.162,52.216,50.162c20.744,0,34.654-7.756,46.278-17.557l-9.113-11.63c-10.72,8.665-20.98,13.911-36.256,13.911
	c-21.887,0-35.562-14.136-35.562-35.567C567.239,1037.564,567.239,1035.969,567.459,1034.373z M432.313,1009.064l17.56-64.746
	h42.857c23.255,0,35.342,8.886,36.481,23.479c0.912,8.434-1.368,15.733-6.385,22.343c-7.066,11.628-23.938,18.925-47.193,18.925
	H432.313z M393.329,1087.271h18.011l16.642-62.017h43.321l31.459,62.017h20.75l-32.833-63.845
	c23.257-3.642,40.586-13.675,48.107-29.179c6.613-10.036,9.121-21.203,7.072-33.063c-2.968-21.199-21.661-33.515-52.213-33.515
	h-57.458L393.329,1087.271z"/>
<path fill-rule="evenodd" clip-rule="evenodd" fill="#FFFFFF" d="M432.313,1009.064l17.56-64.746h42.857
	c23.255,0,35.342,8.886,36.481,23.479c0.912,8.434-1.368,15.733-6.385,22.343c-7.066,11.628-23.938,18.925-47.193,18.925H432.313z
	 M393.329,1087.271h18.011l16.642-62.017h43.321l31.459,62.017h20.75l-32.833-63.845c23.257-3.642,40.586-13.675,48.107-29.179
	c6.613-10.036,9.121-21.203,7.072-33.063c-2.968-21.199-21.661-33.515-52.213-33.515h-57.458L393.329,1087.271z"/>
<path fill-rule="evenodd" clip-rule="evenodd" fill="#FFFFFF" d="M569.97,1021.146c6.383-21.655,24.166-39.436,47.425-39.436
	c20.29,0,29.408,14.131,29.408,30.316c0,4.106-0.453,7.072-1.141,9.119H569.97z M567.459,1034.373h92.34
	c2.507-6.841,4.103-14.365,4.103-22.346c0-24.622-15.732-45.145-45.597-45.145c-39.44,0-68.63,36.936-68.63,72.96
	c0,29.871,20.975,50.162,52.216,50.162c20.744,0,34.654-7.756,46.278-17.557l-9.113-11.63c-10.72,8.665-20.98,13.911-36.256,13.911
	c-21.887,0-35.562-14.136-35.562-35.567C567.239,1037.564,567.239,1035.969,567.459,1034.373z"/>
<path fill-rule="evenodd" clip-rule="evenodd" fill="#FFFFFF" d="M724.956,1074.5c-19.61,0-33.289-14.141-33.289-36.021
	c0-30.103,21.203-56.088,49.247-56.088c21.659,0,36.478,15.961,36.478,36.477C777.392,1047.597,751.173,1074.5,724.956,1074.5
	 M747.075,1132.867h17.552l43.547-163.475h-17.557l-7.065,26.449c-6.386-15.505-20.063-28.959-44.233-28.959
	c-34.426,0-66.118,31.47-66.118,73.185c0,29.87,20.062,49.938,46.738,49.938c18.928,0,33.286-10.263,44.688-23.025L747.075,1132.867
	z"/>
<path fill-rule="evenodd" clip-rule="evenodd" fill="#FFFFFF" d="M851.438,1089.771c18.011,0,30.556-9.576,41.267-21.654
	l-5.245,19.154h17.562l31.461-117.878H918.93l-17.787,66.348c-5.926,22.574-24.394,38.304-42.634,38.304
	c-16.189,0-26.222-9.12-26.222-24.625c0-3.878,0.685-9.352,1.596-13.22l18.013-66.807h-17.557l-17.325,65.664
	c-1.596,6.153-2.966,12.768-2.966,18.237C814.048,1075.64,828.869,1089.771,851.438,1089.771"/>
<path fill-rule="evenodd" clip-rule="evenodd" fill="#FFFFFF" d="M960.598,1021.146c6.385-21.655,24.17-39.436,47.427-39.436
	c20.292,0,29.407,14.131,29.407,30.316c0,4.106-0.454,7.072-1.139,9.119H960.598z M958.09,1034.373h92.345
	c2.499-6.841,4.095-14.365,4.095-22.346c0-24.622-15.726-45.145-45.596-45.145c-39.44,0-68.629,36.936-68.629,72.96
	c0,29.871,20.977,50.162,52.215,50.162c20.751,0,34.654-7.756,46.284-17.557l-9.12-11.63c-10.719,8.665-20.975,13.911-36.249,13.911
	c-21.89,0-35.568-14.136-35.568-35.567C957.866,1037.564,957.866,1035.969,958.09,1034.373z"/>
<path fill-rule="evenodd" clip-rule="evenodd" fill="#FFFFFF" d="M1101.905,1089.771c25.078,0,45.142-15.271,45.142-37.157
	c0-15.277-10.94-23.71-32.144-32.377c-18.695-7.294-23.484-12.312-23.484-20.063c0-9.804,8.888-18.696,25.532-18.696
	c12.771,0,25.078,5.703,34.889,13.685l10.256-12.089c-9.804-8.438-26.217-16.189-43.542-16.189
	c-27.363,0-44.692,16.189-44.692,36.256c0,16.417,12.084,24.165,33.285,32.373c17.102,6.609,22.348,12.313,22.348,20.064
	c0,11.854-12.543,19.607-25.993,19.607c-14.135,0-28.271-5.014-41.041-17.324l-11.397,11.396
	C1064.742,1082.936,1083.662,1089.771,1101.905,1089.771"/>
<path fill-rule="evenodd" clip-rule="evenodd" fill="#FFFFFF" d="M1198.069,1089.318c6.837,0,12.539-0.909,18.692-3.418
	l4.333-15.963c-6.385,2.511-11.854,3.648-17.1,3.648c-10.032,0-16.188-3.872-16.188-12.084c0-2.507,0.459-5.926,0.91-8.66
	l18.244-67.944h37.159l4.107-15.505h-37.164l9.572-35.565h-17.325l-9.576,35.565h-16.412l-4.103,15.505h16.185l-18.468,68.854
	c-0.915,3.648-1.596,8.205-1.596,12.312C1169.341,1081.338,1181.193,1089.318,1198.069,1089.318"/>
<g>
	<defs>
		<path id="SVGID_1_" d="M338.833,621.495L338.833,621.495v101.332v25.149c0,15.529,12.587,28.117,28.117,28.117
			c5.298,0,10.256-1.47,14.487-4.02h0.004l94.664-54.655c0.25-0.139,0.496-0.278,0.742-0.424l0.077-0.048l0,0
			c8.161-4.922,13.62-13.869,13.62-24.094l0,0v-70.811v-88.139v-95.699v-30.784c0-15.525-12.59-28.115-28.114-28.115
			c-5.303,0-10.259,1.467-14.491,4.016l-94.667,54.658c-0.25,0.138-0.497,0.28-0.743,0.425l-0.078,0.045v0.002
			c-8.161,4.92-13.619,13.872-13.619,24.094l0,0V621.495z"/>
	</defs>
	<use xlink:href="#SVGID_1_"  overflow="visible" fill-rule="evenodd" clip-rule="evenodd" fill="#FFFFFF"/>
	<clipPath id="SVGID_2_">
		<use xlink:href="#SVGID_1_"  overflow="visible"/>
	</clipPath>
	<rect x="338.833" y="379.306" clip-path="url(#SVGID_2_)" fill="#FFFFFF" width="151.711" height="396.788"/>
</g>
<g>
	<defs>
		<path id="SVGID_3_" d="M619.614,433.238c-22.872-13.205-64.205-37.069-129.067-74.518l-68.876-39.765l-38.962-22.495l-1.342-0.774
			l-0.738-0.426l-27.379-15.809c-0.228-0.125-0.452-0.254-0.673-0.388l-0.099-0.057v-0.002
			c-8.175-4.918-13.641-13.874-13.641-24.108V144.65c0-15.526,12.59-28.116,28.118-28.116c5.308,0,10.271,1.471,14.508,4.027l0,0
			l109.085,62.98l151.705,87.589l151.71,87.589l107.992,62.351l-0.025,0.046c4.801,2.376,8.981,6.147,11.859,11.135
			c7.765,13.447,3.157,30.644-10.289,38.409l-0.012,0.003l-151.682,87.573c13.433-7.766,18.034-24.955,10.271-38.396
			c-2.478-4.299-5.926-7.695-9.907-10.072c-0.242-0.14-2.123-1.123-2.079-1.202C687.774,472.591,655.094,453.722,619.614,433.238"/>
	</defs>
	<use xlink:href="#SVGID_3_"  overflow="visible" fill-rule="evenodd" clip-rule="evenodd" fill="#FFFFFF"/>
	<clipPath id="SVGID_4_">
		<use xlink:href="#SVGID_3_"  overflow="visible"/>
	</clipPath>
	<rect x="338.836" y="116.534" clip-path="url(#SVGID_4_)" fill="#FFFFFF" width="582.716" height="441.703"/>
</g>
<g>
	<defs>
		<path id="SVGID_5_" d="M338.836,621.49L338.836,621.49v101.328v25.149c0,15.53,12.59,28.118,28.113,28.118
			c5.302,0,10.259-1.467,14.491-4.017l0,0l94.667-54.65c0.249-0.144,0.496-0.286,0.738-0.433l0.077-0.044l0,0
			c8.161-4.923,13.62-13.873,13.62-24.097v-70.808l0.004-88.135v-95.698v-30.785c0-15.527-12.59-28.115-28.118-28.115
			c-5.303,0-10.259,1.466-14.491,4.016l0,0l-94.664,54.654c-0.25,0.14-0.497,0.281-0.742,0.428l-0.078,0.044v0.003
			c-8.161,4.919-13.619,13.868-13.619,24.092V621.49z"/>
	</defs>
	<use xlink:href="#SVGID_5_"  overflow="visible" fill-rule="evenodd" clip-rule="evenodd" fill="#FFFFFF"/>
	<clipPath id="SVGID_6_">
		<use xlink:href="#SVGID_5_"  overflow="visible"/>
	</clipPath>
	<rect x="338.836" y="379.304" clip-path="url(#SVGID_6_)" fill="#FFFFFF" width="151.711" height="396.782"/>
</g>
<g>
	<defs>
		<path id="SVGID_7_" d="M532.258,557.983l0.081,0.046l0.048,0.028l0.044,0.027l0.047,0.026l0.048,0.027l0.045,0.03l0.043,0.023
			l0.048,0.027l0.18,0.107l0.052,0.027l0.043,0.023l0.048,0.026l0.044,0.028l0.048,0.024l25.023,14.449l69.633,40.203
			c8.481,5.101,19.402,5.564,28.576,0.265l95.492-55.131c13.436-7.767,18.037-24.956,10.28-38.397
			c-2.484-4.301-5.936-7.699-9.914-10.074c-0.245-0.14-2.128-1.121-2.079-1.199l-76.016-43.889l-31.822-18.373l-41.793-24.131
			c3.982,2.38,7.429,5.773,9.915,10.073c7.76,13.442,3.157,30.636-10.282,38.402l-16.41,9.476l-8.311,4.794l-23.376,13.5
			l-19.276,11.126l-42.181,24.343L532.258,557.983z"/>
	</defs>
	<use xlink:href="#SVGID_7_"  overflow="visible" fill-rule="evenodd" clip-rule="evenodd" fill="#FFFFFF"/>
	<clipPath id="SVGID_8_">
		<use xlink:href="#SVGID_7_"  overflow="visible"/>
	</clipPath>
	<rect x="490.537" y="422.179" clip-path="url(#SVGID_8_)" fill="#FFFFFF" width="279.303" height="196.492"/>
</g>
</svg>
